Codee Sans - Mono Oblique.ufo
<glyph name="exclam" format="1">
  <advance width="600"/>
  <unicode hex="0021"/>
  <outline>
    <contour>
      <point x="322" y="239" type="line"/>
      <point x="405" y="675" type="line"/>
      <point x="311" y="675" type="line"/>
      <point x="241" y="239" type="line"/>
    </contour>
    <contour>
      <point x="289" y="0" type="line"/>
      <point x="306" y="97" type="line"/>
      <point x="213" y="97" type="line"/>
      <point x="196" y="0" type="line"/>
    </contour>
  </outline>
</glyph>
<glyph name="numbersign" format="1">
  <advance width="600"/>
  <unicode hex="0023"/>
  <outline>
    <contour>
      <point x="342" y="0" type="line"/>
      <point x="467" y="487" type="line"/>
      <point x="409" y="487" type="line"/>
      <point x="283" y="0" type="line"/>
    </contour>
    <contour>
      <point x="454" y="146" type="line"/>
      <point x="463" y="195" type="line"/>
      <point x="74" y="195" type="line"/>
      <point x="65" y="146" type="line"/>
    </contour>
    <contour>
      <point x="191" y="0" type="line"/>
      <point x="318" y="487" type="line"/>
      <point x="262" y="487" type="line"/>
      <point x="137" y="0" type="line"/>
    </contour>
    <contour>
      <point x="528" y="296" type="line"/>
      <point x="535" y="341" type="line"/>
      <point x="146" y="341" type="line"/>
      <point x="139" y="296" type="line"/>
    </contour>
  </outline>
</glyph>
<glyph name="dollar" format="1">
  <advance width="600"/>
  <unicode hex="0024"/>
  <outline>
    <contour>
      <point x="320" y="27"/>
      <point x="438" y="26"/>
      <point x="465" y="178" type="curve" smooth="yes"/>
      <point x="492" y="329"/>
      <point x="202" y="349"/>
      <point x="221" y="450" type="curve" smooth="yes"/>
      <point x="229" y="501"/>
      <point x="265" y="533"/>
      <point x="349" y="533" type="curve" smooth="yes"/>
      <point x="418" y="533"/>
      <point x="495" y="501"/>
      <point x="495" y="501" type="curve"/>
      <point x="507" y="564" type="line"/>
      <point x="507" y="564"/>
      <point x="439" y="595"/>
      <point x="351" y="595" type="curve" smooth="yes"/>
      <point x="238" y="595"/>
      <point x="163" y="531"/>
      <point x="150" y="451" type="curve" smooth="yes"/>
      <point x="119" y="281"/>
      <point x="414" y="282"/>
      <point x="395" y="175" type="curve" smooth="yes"/>
      <point x="382" y="101"/>
      <point x="303" y="93"/>
      <point x="242" y="93" type="curve" smooth="yes"/>
      <point x="166" y="93"/>
      <point x="86" y="131"/>
      <point x="86" y="131" type="curve"/>
      <point x="72" y="53" type="line"/>
      <point x="102" y="45"/>
      <point x="138" y="27"/>
      <point x="229" y="27" type="curve" smooth="yes"/>
    </contour>
    <contour>
      <point x="207" y="-99"/>
      <point x="268" y="-99"/>
      <point x="268" y="-99" type="curve"/>
      <point x="406" y="676" type="line"/>
      <point x="345" y="676" type="line"/>
      <point x="207" y="-99" type="line"/>
    </contour>
  </outline>
</glyph>
<glyph name="percent" format="1">
  <advance width="600"/>
  <unicode hex="0025"/>
  <outline>
    <contour>
      <point x="59" y="27" type="line"/>
      <point x="607" y="602" type="line"/>
      <point x="534" y="602" type="line"/>
      <point x="-13" y="27" type="line"/>
    </contour>
    <contour>
      <point x="474" y="0"/>
      <point x="518" y="62"/>
      <point x="530" y="135" type="curve" smooth="yes"/>
      <point x="544" y="208"/>
      <point x="521" y="265"/>
      <point x="433" y="265" type="curve" smooth="yes"/>
      <point x="345" y="265"/>
      <point x="307" y="208"/>
      <point x="293" y="135" type="curve" smooth="yes"/>
      <point x="281" y="62"/>
      <point x="298" y="0"/>
      <point x="386" y="0" type="curve" smooth="yes"/>
    </contour>
    <contour>
      <point x="342" y="53"/>
      <point x="343" y="94"/>
      <point x="350" y="134" type="curve" smooth="yes"/>
      <point x="357" y="174"/>
      <point x="370" y="213"/>
      <point x="425" y="213" type="curve" smooth="yes"/>
      <point x="481" y="213"/>
      <point x="482" y="174"/>
      <point x="475" y="134" type="curve" smooth="yes"/>
      <point x="468" y="94"/>
      <point x="453" y="53"/>
      <point x="397" y="53" type="curve" smooth="yes"/>
    </contour>
    <contour>
      <point x="268" y="360"/>
      <point x="313" y="422"/>
      <point x="325" y="495" type="curve" smooth="yes"/>
      <point x="338" y="568"/>
      <point x="315" y="625"/>
      <point x="227" y="625" type="curve" smooth="yes"/>
      <point x="139" y="625"/>
      <point x="101" y="568"/>
      <point x="88" y="495" type="curve" smooth="yes"/>
      <point x="76" y="422"/>
      <point x="92" y="360"/>
      <point x="180" y="360" type="curve" smooth="yes"/>
    </contour>
    <contour>
      <point x="136" y="413"/>
      <point x="138" y="454"/>
      <point x="145" y="494" type="curve" smooth="yes"/>
      <point x="152" y="534"/>
      <point x="164" y="573"/>
      <point x="219" y="573" type="curve" smooth="yes"/>
      <point x="275" y="573"/>
      <point x="277" y="534"/>
      <point x="270" y="494" type="curve" smooth="yes"/>
      <point x="263" y="454"/>
      <point x="247" y="413"/>
      <point x="191" y="413" type="curve" smooth="yes"/>
    </contour>
  </outline>
</glyph>
<glyph name="ampersand" format="1">
  <advance width="600"/>
  <unicode hex="0026"/>
  <outline>
    <contour>
      <point x="500" y="0" type="line"/>
      <point x="232" y="418" type="line"/>
      <point x="232" y="418"/>
      <point x="182" y="488"/>
      <point x="190" y="534" type="curve" smooth="yes"/>
      <point x="199" y="583"/>
      <point x="230" y="614"/>
      <point x="289" y="614" type="curve" smooth="yes"/>
      <point x="348" y="614"/>
      <point x="380" y="585"/>
      <point x="373" y="539" type="curve"/>
      <point x="446" y="539" type="line"/>
      <point x="461" y="625"/>
      <point x="406" y="680"/>
      <point x="306" y="680" type="curve" smooth="yes"/>
      <point x="201" y="680"/>
      <point x="125" y="622"/>
      <point x="109" y="532" type="curve" smooth="yes"/>
      <point x="97" y="457"/>
      <point x="162" y="374"/>
      <point x="162" y="374" type="curve"/>
      <point x="398" y="0" type="line"/>
    </contour>
    <contour>
      <point x="341" y="-6"/>
      <point x="459" y="82"/>
      <point x="481" y="204" type="curve"/>
      <point x="498" y="303" type="line"/>
      <point x="427" y="303" type="line"/>
      <point x="410" y="204" type="line"/>
      <point x="394" y="119"/>
      <point x="315" y="58"/>
      <point x="221" y="58" type="curve" smooth="yes"/>
      <point x="129" y="58"/>
      <point x="77" y="103"/>
      <point x="90" y="173" type="curve" smooth="yes"/>
      <point x="107" y="270"/>
      <point x="193" y="320"/>
      <point x="193" y="320" type="curve"/>
      <point x="249" y="349" type="line"/>
      <point x="209" y="398" type="line"/>
      <point x="165" y="374" type="line"/>
      <point x="165" y="374"/>
      <point x="35" y="313"/>
      <point x="11" y="174" type="curve" smooth="yes"/>
      <point x="-7" y="74"/>
      <point x="76" y="-6"/>
      <point x="195" y="-6" type="curve" smooth="yes"/>
    </contour>
  </outline>
</glyph>
<glyph name="quotesingle" format="1">
  <advance width="600"/>
  <unicode hex="0027"/>
  <outline>
    <contour>
      <point x="316" y="384" type="line"/>
      <point x="366" y="675" type="line"/>
      <point x="284" y="675" type="line"/>
      <point x="241" y="384" type="line"/>
    </contour>
  </outline>
</glyph>
<glyph name="parenleft" format="1">
  <advance width="600"/>
  <unicode hex="0028"/>
  <outline>
    <contour>
      <point x="331" y="-158" type="line"/>
      <point x="342" y="-148"/>
      <point x="234" y="-6"/>
      <point x="277" y="239" type="curve" smooth="yes"/>
      <point x="320" y="484"/>
      <point x="479" y="616"/>
      <point x="479" y="616" type="curve"/>
      <point x="435" y="675" type="line"/>
      <point x="435" y="675"/>
      <point x="241" y="488"/>
      <point x="197" y="239" type="curve" smooth="yes"/>
      <point x="153" y="-10"/>
      <point x="281" y="-198"/>
      <point x="281" y="-198" type="curve"/>
    </contour>
  </outline>
</glyph>
<glyph name="parenright" format="1">
  <advance width="600"/>
  <unicode hex="0029"/>
  <outline>
    <contour>
      <point x="164" y="-198"/>
      <point x="358" y="-10"/>
      <point x="402" y="239" type="curve" smooth="yes"/>
      <point x="446" y="488"/>
      <point x="318" y="675"/>
      <point x="318" y="675" type="curve"/>
      <point x="254" y="616" type="line"/>
      <point x="254" y="616"/>
      <point x="365" y="484"/>
      <point x="322" y="239" type="curve" smooth="yes"/>
      <point x="279" y="-6"/>
      <point x="119" y="-148"/>
      <point x="119" y="-148" type="curve"/>
      <point x="164" y="-198" type="line"/>
    </contour>
  </outline>
</glyph>
<glyph name="asterisk" format="1">
  <advance width="600"/>
  <unicode hex="002A"/>
  <outline>
    <contour>
      <point x="299" y="203" type="line"/>
      <point x="315" y="300" type="line"/>
      <point x="386" y="245" type="line"/>
      <point x="418" y="283" type="line"/>
      <point x="338" y="340" type="line"/>
      <point x="438" y="399" type="line"/>
      <point x="420" y="437" type="line"/>
      <point x="330" y="382" type="line"/>
      <point x="349" y="479" type="line"/>
      <point x="302" y="479" type="line"/>
      <point x="286" y="382" type="line"/>
      <point x="214" y="437" type="line"/>
      <point x="182" y="399" type="line"/>
      <point x="262" y="341" type="line"/>
      <point x="162" y="283" type="line"/>
      <point x="180" y="245" type="line"/>
      <point x="271" y="300" type="line"/>
      <point x="252" y="203" type="line"/>
    </contour>
  </outline>
</glyph>
<glyph name="plus" format="1">
  <advance width="600"/>
  <unicode hex="002B"/>
  <outline>
    <contour>
      <point x="293" y="99" type="line"/>
      <point x="353" y="440" type="line"/>
      <point x="305" y="440" type="line"/>
      <point x="245" y="99" type="line"/>
    </contour>
    <contour>
      <point x="466" y="246" type="line"/>
      <point x="474" y="293" type="line"/>
      <point x="133" y="293" type="line"/>
      <point x="125" y="246" type="line"/>
    </contour>
  </outline>
</glyph>
<glyph name="hyphen" format="1">
  <advance width="600"/>
  <unicode hex="002D"/>
  <outline>
    <contour>
      <point x="466" y="196" type="line"/>
      <point x="476" y="255" type="line"/>
      <point x="134" y="255" type="line"/>
      <point x="124" y="196" type="line"/>
    </contour>
  </outline>
</glyph>
<glyph name="period" format="1">
  <advance width="600"/>
  <unicode hex="002E"/>
  <outline>
    <contour>
      <point x="350" y="0" type="line"/>
      <point x="376" y="146" type="line"/>
      <point x="250" y="146" type="line"/>
      <point x="224" y="0" type="line"/>
    </contour>
  </outline>
</glyph>
<glyph name="slash" format="1">
  <advance width="600"/>
  <unicode hex="002F"/>
  <outline>
    <contour>
      <point x="101" y="-98" type="line"/>
      <point x="572" y="636" type="line"/>
      <point x="499" y="636" type="line"/>
      <point x="28" y="-98" type="line"/>
    </contour>
  </outline>
</glyph>
<glyph name="zero" format="1">
  <advance width="600"/>
  <unicode hex="0030"/>
  <outline>
    <contour>
      <point x="396" y="-6"/>
      <point x="482" y="93"/>
      <point x="521" y="312" type="curve" smooth="yes"/>
      <point x="560" y="533"/>
      <point x="510" y="632"/>
      <point x="356" y="632" type="curve" smooth="yes"/>
      <point x="203" y="632"/>
      <point x="117" y="533"/>
      <point x="78" y="312" type="curve" smooth="yes"/>
      <point x="39" y="93"/>
      <point x="89" y="-6"/>
      <point x="242" y="-6" type="curve" smooth="yes"/>
    </contour>
    <contour>
      <point x="160" y="63"/>
      <point x="131" y="140"/>
      <point x="161" y="312" type="curve" smooth="yes"/>
      <point x="191" y="485"/>
      <point x="248" y="563"/>
      <point x="343" y="563" type="curve" smooth="yes"/>
      <point x="438" y="563"/>
      <point x="467" y="485"/>
      <point x="437" y="312" type="curve" smooth="yes"/>
      <point x="407" y="140"/>
      <point x="350" y="63"/>
      <point x="255" y="63" type="curve" smooth="yes"/>
    </contour>
    <contour>
      <point x="509" y="450" type="line"/>
      <point x="469" y="499" type="line"/>
      <point x="88" y="176" type="line"/>
      <point x="128" y="127" type="line"/>
    </contour>
  </outline>
</glyph>
<glyph name="one" format="1">
  <advance width="600"/>
  <unicode hex="0031"/>
  <outline>
    <contour>
      <point x="444" y="0" type="line"/>
      <point x="456" y="69" type="line"/>
      <point x="304" y="69" type="line"/>
      <point x="402" y="626" type="line"/>
      <point x="307" y="626" type="line"/>
      <point x="192" y="599" type="line"/>
      <point x="180" y="529" type="line"/>
      <point x="292" y="543" type="line"/>
      <point x="209" y="69" type="line"/>
      <point x="58" y="69" type="line"/>
      <point x="46" y="0" type="line"/>
    </contour>
  </outline>
</glyph>
<glyph name="two" format="1">
  <advance width="600"/>
  <unicode hex="0032"/>
  <outline>
    <contour>
      <point x="464" y="0" type="line"/>
      <point x="479" y="80" type="line"/>
      <point x="161" y="80" type="line"/>
      <point x="212" y="131"/>
      <point x="478" y="278"/>
      <point x="504" y="453" type="curve" smooth="yes"/>
      <point x="518" y="544"/>
      <point x="465" y="620"/>
      <point x="309" y="622" type="curve" smooth="yes"/>
      <point x="210" y="623"/>
      <point x="140" y="596"/>
      <point x="140" y="596" type="curve"/>
      <point x="125" y="509" type="line"/>
      <point x="125" y="509"/>
      <point x="168" y="549"/>
      <point x="287" y="543" type="curve" smooth="yes"/>
      <point x="376" y="538"/>
      <point x="427" y="511"/>
      <point x="414" y="439" type="curve" smooth="yes"/>
      <point x="390" y="298"/>
      <point x="161" y="181"/>
      <point x="39" y="69" type="curve"/>
      <point x="26" y="0" type="line"/>
    </contour>
  </outline>
</glyph>
<glyph name="three" format="1">
  <advance width="600"/>
  <unicode hex="0033"/>
  <outline>
    <contour>
      <point x="398" y="-6"/>
      <point x="448" y="57"/>
      <point x="468" y="173" type="curve" smooth="yes"/>
      <point x="484" y="262"/>
      <point x="449" y="329"/>
      <point x="362" y="329" type="curve"/>
      <point x="430" y="329"/>
      <point x="475" y="377"/>
      <point x="490" y="466" type="curve" smooth="yes"/>
      <point x="509" y="574"/>
      <point x="463" y="632"/>
      <point x="327" y="632" type="curve" smooth="yes"/>
      <point x="245" y="632"/>
      <point x="159" y="612"/>
      <point x="159" y="612" type="curve"/>
      <point x="147" y="544" type="line"/>
      <point x="147" y="544"/>
      <point x="222" y="566"/>
      <point x="299" y="566" type="curve" smooth="yes"/>
      <point x="357" y="566"/>
      <point x="427" y="554"/>
      <point x="413" y="472" type="curve" smooth="yes"/>
      <point x="403" y="415"/>
      <point x="358" y="361"/>
      <point x="271" y="361" type="curve" smooth="yes"/>
      <point x="212" y="361" type="line"/>
      <point x="199" y="287" type="line"/>
      <point x="264" y="287" type="line" smooth="yes"/>
      <point x="361" y="287"/>
      <point x="393" y="234"/>
      <point x="382" y="170" type="curve" smooth="yes"/>
      <point x="372" y="115"/>
      <point x="333" y="74"/>
      <point x="230" y="74" type="curve" smooth="yes"/>
      <point x="131" y="74"/>
      <point x="68" y="91"/>
      <point x="68" y="91" type="curve"/>
      <point x="53" y="8" type="line"/>
      <point x="53" y="8"/>
      <point x="117" y="-6"/>
      <point x="213" y="-6" type="curve" smooth="yes"/>
    </contour>
  </outline>
</glyph>
<glyph name="four" format="1">
  <advance width="600"/>
  <unicode hex="0034"/>
  <outline>
    <contour>
      <point x="353" y="0" type="line"/>
      <point x="379" y="150" type="line"/>
      <point x="507" y="150" type="line"/>
      <point x="519" y="219" type="line"/>
      <point x="391" y="219" type="line"/>
      <point x="463" y="626" type="line"/>
      <point x="380" y="626" type="line"/>
      <point x="46" y="219" type="line"/>
      <point x="34" y="150" type="line"/>
      <point x="296" y="150" type="line"/>
      <point x="270" y="0" type="line"/>
    </contour>
    <contour>
      <point x="357" y="494" type="line"/>
      <point x="308" y="219" type="line"/>
      <point x="131" y="219" type="line"/>
    </contour>
  </outline>
</glyph>
<glyph name="five" format="1">
  <advance width="600"/>
  <unicode hex="0035"/>
  <outline>
    <contour>
      <point x="369" y="-6"/>
      <point x="470" y="71"/>
      <point x="490" y="187" type="curve" smooth="yes"/>
      <point x="510" y="301"/>
      <point x="440" y="363"/>
      <point x="292" y="363" type="curve" smooth="yes"/>
      <point x="223" y="363" type="line"/>
      <point x="257" y="557" type="line"/>
      <point x="521" y="557" type="line"/>
      <point x="533" y="626" type="line"/>
      <point x="191" y="625" type="line"/>
      <point x="134" y="296" type="line"/>
      <point x="236" y="296" type="line" smooth="yes"/>
      <point x="355" y="296"/>
      <point x="414" y="256"/>
      <point x="402" y="182" type="curve" smooth="yes"/>
      <point x="389" y="110"/>
      <point x="318" y="67"/>
      <point x="199" y="67" type="curve" smooth="yes"/>
      <point x="101" y="67"/>
      <point x="50" y="99"/>
      <point x="50" y="99" type="curve"/>
      <point x="37" y="23" type="line"/>
      <point x="37" y="23"/>
      <point x="110" y="-6"/>
      <point x="207" y="-6" type="curve" smooth="yes"/>
    </contour>
  </outline>
</glyph>
<glyph name="six" format="1">
  <advance width="600"/>
  <unicode hex="0036"/>
  <outline>
    <contour>
      <point x="357" y="-6"/>
      <point x="470" y="63"/>
      <point x="492" y="190" type="curve" smooth="yes"/>
      <point x="509" y="285"/>
      <point x="472" y="383"/>
      <point x="343" y="383" type="curve" smooth="yes"/>
      <point x="253" y="383"/>
      <point x="165" y="334"/>
      <point x="165" y="334" type="curve"/>
      <point x="150" y="242" type="line"/>
      <point x="150" y="242"/>
      <point x="227" y="314"/>
      <point x="309" y="314" type="curve" smooth="yes"/>
      <point x="373" y="314"/>
      <point x="427" y="271"/>
      <point x="412" y="189" type="curve" smooth="yes"/>
      <point x="397" y="108"/>
      <point x="329" y="64"/>
      <point x="265" y="64" type="curve" smooth="yes"/>
      <point x="175" y="64"/>
      <point x="142" y="147"/>
      <point x="169" y="303" type="curve" smooth="yes"/>
      <point x="199" y="472"/>
      <point x="274" y="562"/>
      <point x="384" y="562" type="curve" smooth="yes"/>
      <point x="454" y="562"/>
      <point x="515" y="526"/>
      <point x="515" y="526" type="curve"/>
      <point x="530" y="601" type="line"/>
      <point x="530" y="601"/>
      <point x="483" y="632"/>
      <point x="402" y="632" type="curve" smooth="yes"/>
      <point x="251" y="632"/>
      <point x="124" y="529"/>
      <point x="88" y="323" type="curve" smooth="yes"/>
      <point x="48" y="97"/>
      <point x="105" y="-6"/>
      <point x="247" y="-6" type="curve" smooth="yes"/>
    </contour>
  </outline>
</glyph>
<glyph name="seven" format="1">
  <advance width="600"/>
  <unicode hex="0037"/>
  <outline>
    <contour>
      <point x="205" y="0" type="line"/>
      <point x="551" y="538" type="line" smooth="yes"/>
      <point x="566" y="626" type="line"/>
      <point x="144" y="626" type="line"/>
      <point x="129" y="539" type="line"/>
      <point x="456" y="539" type="line"/>
      <point x="99" y="0" type="line"/>
    </contour>
  </outline>
</glyph>
<glyph name="eight" format="1">
  <advance width="600"/>
  <unicode hex="0038"/>
  <outline>
    <contour>
      <point x="389" y="-6"/>
      <point x="476" y="74"/>
      <point x="494" y="179" type="curve" smooth="yes"/>
      <point x="533" y="403"/>
      <point x="180" y="283"/>
      <point x="209" y="449" type="curve" smooth="yes"/>
      <point x="219" y="506"/>
      <point x="269" y="561"/>
      <point x="344" y="561" type="curve" smooth="yes"/>
      <point x="419" y="561"/>
      <point x="449" y="505"/>
      <point x="440" y="452" type="curve" smooth="yes"/>
      <point x="424" y="363"/>
      <point x="307" y="319"/>
      <point x="307" y="319" type="curve"/>
      <point x="359" y="298" type="line"/>
      <point x="384" y="284" type="line"/>
      <point x="384" y="284"/>
      <point x="510" y="345"/>
      <point x="530" y="452" type="curve" smooth="yes"/>
      <point x="544" y="536"/>
      <point x="491" y="632"/>
      <point x="357" y="632" type="curve" smooth="yes"/>
      <point x="251" y="632"/>
      <point x="143" y="575"/>
      <point x="121" y="457" type="curve" smooth="yes"/>
      <point x="81" y="223"/>
      <point x="446" y="368"/>
      <point x="412" y="176" type="curve" smooth="yes"/>
      <point x="399" y="104"/>
      <point x="339" y="66"/>
      <point x="265" y="66" type="curve" smooth="yes"/>
      <point x="170" y="66"/>
      <point x="127" y="107"/>
      <point x="141" y="184" type="curve" smooth="yes"/>
      <point x="164" y="316"/>
      <point x="310" y="306"/>
      <point x="310" y="306" type="curve"/>
      <point x="270" y="326" type="line"/>
      <point x="243" y="336" type="line"/>
      <point x="243" y="336"/>
      <point x="85" y="328"/>
      <point x="59" y="182" type="curve" smooth="yes"/>
      <point x="40" y="78"/>
      <point x="104" y="-6"/>
      <point x="252" y="-6" type="curve" smooth="yes"/>
    </contour>
  </outline>
</glyph>
<glyph name="nine" format="1">
  <advance width="600"/>
  <unicode hex="0039"/>
  <outline>
    <contour>
      <point x="343" y="-6"/>
      <point x="475" y="96"/>
      <point x="513" y="310" type="curve" smooth="yes"/>
      <point x="551" y="528"/>
      <point x="530" y="632"/>
      <point x="354" y="632" type="curve" smooth="yes"/>
      <point x="211" y="632"/>
      <point x="132" y="569"/>
      <point x="109" y="436" type="curve" smooth="yes"/>
      <point x="85" y="305"/>
      <point x="133" y="243"/>
      <point x="258" y="243" type="curve" smooth="yes"/>
      <point x="368" y="243"/>
      <point x="436" y="293"/>
      <point x="436" y="293" type="curve"/>
      <point x="452" y="364" type="line"/>
      <point x="452" y="364"/>
      <point x="393" y="305"/>
      <point x="290" y="305" type="curve" smooth="yes"/>
      <point x="205" y="305"/>
      <point x="173" y="347"/>
      <point x="189" y="437" type="curve" smooth="yes"/>
      <point x="204" y="522"/>
      <point x="251" y="563"/>
      <point x="336" y="563" type="curve" smooth="yes"/>
      <point x="455" y="563"/>
      <point x="460" y="485"/>
      <point x="432" y="323" type="curve" smooth="yes"/>
      <point x="401" y="148"/>
      <point x="325" y="65"/>
      <point x="217" y="65" type="curve" smooth="yes"/>
      <point x="147" y="65"/>
      <point x="86" y="100"/>
      <point x="86" y="100" type="curve"/>
      <point x="71" y="25" type="line"/>
      <point x="71" y="25"/>
      <point x="118" y="-6"/>
      <point x="199" y="-6" type="curve" smooth="yes"/>
    </contour>
  </outline>
</glyph>
<glyph name="colon" format="1">
  <advance width="600"/>
  <unicode hex="003A"/>
  <outline>
    <contour>
      <point x="380" y="342" type="line"/>
      <point x="406" y="488" type="line"/>
      <point x="280" y="488" type="line"/>
      <point x="254" y="342" type="line"/>
    </contour>
    <contour>
      <point x="320" y="0" type="line"/>
      <point x="346" y="146" type="line"/>
      <point x="220" y="146" type="line"/>
      <point x="194" y="0" type="line"/>
    </contour>
  </outline>
</glyph>
<glyph name="semicolon" format="1">
  <advance width="600"/>
  <unicode hex="003B"/>
  <outline>
    <contour>
      <point x="256" y="-147" type="line"/>
      <point x="358" y="0" type="line"/>
      <point x="383" y="146" type="line"/>
      <point x="257" y="146" type="line"/>
      <point x="232" y="0" type="line"/>
      <point x="155" y="-147" type="line"/>
    </contour>
    <contour>
      <point x="409" y="342" type="line"/>
      <point x="301" y="342" type="line"/>
    </contour>
    <contour>
      <point x="418" y="342" type="line"/>
      <point x="444" y="488" type="line"/>
      <point x="318" y="488" type="line"/>
      <point x="292" y="342" type="line"/>
    </contour>
  </outline>
</glyph>
<glyph name="equal" format="1">
  <advance width="600"/>
  <unicode hex="003D"/>
  <outline>
    <contour>
      <point x="479" y="342" type="line"/>
      <point x="488" y="390" type="line"/>
      <point x="146" y="390" type="line"/>
      <point x="137" y="342" type="line"/>
    </contour>
    <contour>
      <point x="454" y="196" type="line"/>
      <point x="463" y="244" type="line"/>
      <point x="121" y="244" type="line"/>
      <point x="112" y="196" type="line"/>
    </contour>
  </outline>
</glyph>
<glyph name="greater" format="1">
  <advance width="600"/>
  <unicode hex="003E"/>
  <outline>
    <contour>
      <point x="462" y="196" type="line"/>
      <point x="462" y="196"/>
      <point x="479" y="293"/>
      <point x="479" y="293" type="curve"/>
      <point x="174" y="488" type="line"/>
      <point x="158" y="402" type="line"/>
      <point x="395" y="245" type="line"/>
      <point x="103" y="85" type="line"/>
      <point x="86" y="-6" type="line"/>
    </contour>
  </outline>
</glyph>
<glyph name="question" format="1">
  <advance width="600"/>
  <unicode hex="003F"/>
  <outline>
    <contour>
      <point x="319" y="239" type="line"/>
      <point x="324" y="273" type="line" smooth="yes"/>
      <point x="340" y="359"/>
      <point x="520" y="390"/>
      <point x="537" y="494" type="curve" smooth="yes"/>
      <point x="557" y="608"/>
      <point x="488" y="675"/>
      <point x="352" y="675" type="curve" smooth="yes"/>
      <point x="231" y="675"/>
      <point x="135" y="592"/>
      <point x="135" y="592" type="curve"/>
      <point x="170" y="535" type="line"/>
      <point x="170" y="535"/>
      <point x="225" y="597"/>
      <point x="338" y="597" type="curve"/>
      <point x="338" y="597"/>
      <point x="467" y="607"/>
      <point x="449" y="503" type="curve" smooth="yes"/>
      <point x="435" y="423"/>
      <point x="253" y="394"/>
      <point x="233" y="276" type="curve" smooth="yes"/>
      <point x="226" y="239" type="line"/>
    </contour>
    <contour>
      <point x="277" y="0" type="line"/>
      <point x="294" y="97" type="line"/>
      <point x="201" y="97" type="line"/>
      <point x="184" y="0" type="line"/>
    </contour>
  </outline>
</glyph>
<glyph name="at" format="1">
  <advance width="600"/>
  <unicode hex="0040"/>
  <outline>
    <contour>
      <point x="441" y="-6"/>
      <point x="535" y="115"/>
      <point x="568" y="300" type="curve" smooth="yes"/>
      <point x="606" y="515"/>
      <point x="487" y="633"/>
      <point x="324" y="633" type="curve" smooth="yes"/>
      <point x="192" y="633"/>
      <point x="70" y="543"/>
      <point x="70" y="543" type="curve"/>
      <point x="99" y="483" type="line" smooth="yes"/>
      <point x="99" y="483"/>
      <point x="201" y="562"/>
      <point x="311" y="562" type="curve" smooth="yes"/>
      <point x="437" y="562"/>
      <point x="525" y="471"/>
      <point x="495" y="302" type="curve" smooth="yes"/>
      <point x="467" y="140"/>
      <point x="413" y="45"/>
      <point x="366" y="45" type="curve" smooth="yes"/>
      <point x="339" y="45"/>
      <point x="350" y="93"/>
      <point x="350" y="93" type="curve"/>
      <point x="402" y="388" type="line"/>
      <point x="325" y="361" type="line"/>
      <point x="277" y="93" type="line"/>
      <point x="277" y="93"/>
      <point x="249" y="-6"/>
      <point x="360" y="-6" type="curve" smooth="yes"/>
    </contour>
    <contour>
      <point x="262" y="-11"/>
      <point x="311" y="96"/>
      <point x="311" y="96" type="curve"/>
      <point x="303" y="137" type="line"/>
      <point x="303" y="137"/>
      <point x="249" y="50"/>
      <point x="171" y="50" type="curve" smooth="yes"/>
      <point x="121" y="50"/>
      <point x="92" y="101"/>
      <point x="110" y="202" type="curve" smooth="yes"/>
      <point x="127" y="298"/>
      <point x="173" y="334"/>
      <point x="251" y="334" type="curve" smooth="yes"/>
      <point x="317" y="334"/>
      <point x="387" y="319"/>
      <point x="387" y="319" type="curve"/>
      <point x="402" y="388" type="line"/>
      <point x="402" y="388"/>
      <point x="342" y="403"/>
      <point x="267" y="403" type="curve" smooth="yes"/>
      <point x="164" y="403"/>
      <point x="56" y="363"/>
      <point x="28" y="204" type="curve" smooth="yes"/>
      <point x="0" y="46"/>
      <point x="78" y="-11"/>
      <point x="159" y="-11" type="curve" smooth="yes"/>
    </contour>
  </outline>
</glyph>
<glyph name="A" format="1">
  <advance width="600"/>
  <unicode hex="0041"/>
  <outline>
    <contour>
      <point x="72" y="0" type="line"/>
      <point x="337" y="513" type="line"/>
      <point x="335" y="513" type="line"/>
      <point x="333" y="513" type="line"/>
      <point x="418" y="0" type="line"/>
      <point x="512" y="0" type="line"/>
      <point x="396" y="626" type="line"/>
      <point x="314" y="626" type="line"/>
      <point x="-22" y="0" type="line"/>
    </contour>
    <contour>
      <point x="440" y="154" type="line"/>
      <point x="450" y="212" type="line"/>
      <point x="113" y="212" type="line"/>
      <point x="103" y="154" type="line"/>
    </contour>
  </outline>
</glyph>
<glyph name="B" format="1">
  <advance width="600"/>
  <unicode hex="0042"/>
  <outline>
    <contour>
      <point x="35" y="0"/>
      <point x="174" y="0"/>
      <point x="208" y="0" type="curve" smooth="yes"/>
      <point x="394" y="0"/>
      <point x="465" y="56"/>
      <point x="486" y="179" type="curve" smooth="yes"/>
      <point x="505" y="281"/>
      <point x="470" y="327"/>
      <point x="328" y="327" type="curve"/>
      <point x="451" y="327"/>
      <point x="491" y="368"/>
      <point x="506" y="460" type="curve" smooth="yes"/>
      <point x="527" y="574"/>
      <point x="490" y="626"/>
      <point x="301" y="626" type="curve" smooth="yes"/>
      <point x="301" y="626"/>
      <point x="145" y="626"/>
      <point x="145" y="626" type="curve"/>
      <point x="92" y="327" type="line"/>
      <point x="92" y="325" type="line"/>
      <point x="35" y="0" type="line"/>
    </contour>
    <contour>
      <point x="179" y="287" type="line"/>
      <point x="187" y="287"/>
      <point x="198" y="287"/>
      <point x="243" y="287" type="curve" smooth="yes"/>
      <point x="374" y="287"/>
      <point x="414" y="252"/>
      <point x="400" y="176" type="curve" smooth="yes"/>
      <point x="387" y="103"/>
      <point x="342" y="69"/>
      <point x="182" y="69" type="curve" smooth="yes"/>
      <point x="147" y="69"/>
      <point x="149" y="69"/>
      <point x="141" y="69" type="curve"/>
    </contour>
    <contour>
      <point x="228" y="561" type="line"/>
      <point x="245" y="561"/>
      <point x="265" y="561"/>
      <point x="293" y="561" type="curve" smooth="yes"/>
      <point x="416" y="561"/>
      <point x="442" y="531"/>
      <point x="430" y="466" type="curve" smooth="yes"/>
      <point x="416" y="389"/>
      <point x="367" y="355"/>
      <point x="247" y="355" type="curve" smooth="yes"/>
      <point x="211" y="355"/>
      <point x="212" y="355"/>
      <point x="191" y="355" type="curve"/>
    </contour>
  </outline>
</glyph>
<glyph name="C" format="1">
  <advance width="600"/>
  <unicode hex="0043"/>
  <outline>
    <contour>
      <point x="357" y="-6"/>
      <point x="470" y="30"/>
      <point x="470" y="30" type="curve"/>
      <point x="485" y="112" type="line"/>
      <point x="485" y="112"/>
      <point x="371" y="70"/>
      <point x="300" y="70" type="curve" smooth="yes"/>
      <point x="197" y="70"/>
      <point x="153" y="160"/>
      <point x="180" y="312" type="curve" smooth="yes"/>
      <point x="207" y="467"/>
      <point x="292" y="559"/>
      <point x="391" y="559" type="curve" smooth="yes"/>
      <point x="450" y="559"/>
      <point x="558" y="528"/>
      <point x="558" y="528" type="curve"/>
      <point x="570" y="596" type="line"/>
      <point x="570" y="596"/>
      <point x="472" y="632"/>
      <point x="386" y="632" type="curve" smooth="yes"/>
      <point x="230" y="632"/>
      <point x="115" y="513"/>
      <point x="80" y="312" type="curve" smooth="yes"/>
      <point x="45" y="113"/>
      <point x="116" y="-6"/>
      <point x="272" y="-6" type="curve" smooth="yes"/>
    </contour>
  </outline>
</glyph>
<glyph name="D" format="1">
  <advance width="600"/>
  <unicode hex="0044"/>
  <outline>
    <contour>
      <point x="407" y="0"/>
      <point x="497" y="105"/>
      <point x="536" y="325" type="curve" smooth="yes"/>
      <point x="572" y="528"/>
      <point x="514" y="626"/>
      <point x="264" y="626" type="curve" smooth="yes"/>
      <point x="264" y="626"/>
      <point x="144" y="626"/>
      <point x="144" y="626" type="curve"/>
      <point x="131" y="550" type="line"/>
      <point x="249" y="550" type="line" smooth="yes"/>
      <point x="447" y="550"/>
      <point x="485" y="477"/>
      <point x="458" y="325" type="curve" smooth="yes"/>
      <point x="429" y="157"/>
      <point x="359" y="77"/>
      <point x="152" y="77" type="curve" smooth="yes"/>
      <point x="46" y="77"/>
      <point x="42" y="77"/>
      <point x="42" y="77" type="curve"/>
      <point x="29" y="1" type="line"/>
      <point x="29" y="1"/>
      <point x="34" y="0"/>
      <point x="162" y="0" type="curve" smooth="yes"/>
    </contour>
    <contour>
      <point x="104" y="1" type="line"/>
      <point x="214" y="626" type="line"/>
      <point x="121" y="626" type="line"/>
      <point x="11" y="1" type="line"/>
    </contour>
  </outline>
</glyph>
<glyph name="E" format="1">
  <advance width="600"/>
  <unicode hex="0045"/>
  <outline>
    <contour>
      <point x="139" y="0" type="line"/>
      <point x="249" y="623" type="line"/>
      <point x="156" y="623" type="line"/>
      <point x="46" y="0" type="line"/>
    </contour>
    <contour>
      <point x="444" y="0" type="line"/>
      <point x="456" y="68" type="line"/>
      <point x="58" y="68" type="line"/>
      <point x="46" y="0" type="line"/>
    </contour>
    <contour>
      <point x="390" y="286" type="line"/>
      <point x="402" y="354" type="line"/>
      <point x="108" y="354" type="line"/>
      <point x="96" y="286" type="line"/>
    </contour>
    <contour>
      <point x="542" y="558" type="line"/>
      <point x="554" y="626" type="line"/>
      <point x="156" y="626" type="line"/>
      <point x="144" y="558" type="line"/>
    </contour>
  </outline>
</glyph>
<glyph name="F" format="1">
  <advance width="600"/>
  <unicode hex="0046"/>
  <outline>
    <contour>
      <point x="139" y="1" type="line"/>
      <point x="249" y="624" type="line"/>
      <point x="156" y="624" type="line"/>
      <point x="46" y="1" type="line"/>
    </contour>
    <contour>
      <point x="390" y="287" type="line"/>
      <point x="402" y="355" type="line"/>
      <point x="108" y="355" type="line"/>
      <point x="96" y="287" type="line"/>
    </contour>
    <contour>
      <point x="542" y="558" type="line"/>
      <point x="554" y="626" type="line"/>
      <point x="156" y="626" type="line"/>
      <point x="144" y="558" type="line"/>
    </contour>
  </outline>
</glyph>
<glyph name="G" format="1">
  <advance width="600"/>
  <unicode hex="0047"/>
  <outline>
    <contour>
      <point x="327" y="-6"/>
      <point x="461" y="30"/>
      <point x="461" y="30" type="curve"/>
      <point x="476" y="112" type="line"/>
      <point x="476" y="112"/>
      <point x="341" y="70"/>
      <point x="270" y="70" type="curve" smooth="yes"/>
      <point x="167" y="70"/>
      <point x="123" y="160"/>
      <point x="150" y="312" type="curve" smooth="yes"/>
      <point x="177" y="467"/>
      <point x="262" y="559"/>
      <point x="361" y="559" type="curve" smooth="yes"/>
      <point x="420" y="559"/>
      <point x="528" y="528"/>
      <point x="528" y="528" type="curve"/>
      <point x="540" y="596" type="line"/>
      <point x="540" y="596"/>
      <point x="442" y="632"/>
      <point x="356" y="632" type="curve" smooth="yes"/>
      <point x="200" y="632"/>
      <point x="85" y="513"/>
      <point x="50" y="312" type="curve" smooth="yes"/>
      <point x="15" y="113"/>
      <point x="86" y="-6"/>
      <point x="242" y="-6" type="curve" smooth="yes"/>
    </contour>
    <contour>
      <point x="461" y="30" type="line"/>
      <point x="518" y="353" type="line"/>
      <point x="432" y="353" type="line"/>
      <point x="375" y="30" type="line"/>
    </contour>
    <contour>
      <point x="506" y="286" type="line"/>
      <point x="518" y="354" type="line"/>
      <point x="339" y="354" type="line"/>
      <point x="327" y="286" type="line"/>
    </contour>
  </outline>
</glyph>
<glyph name="I" format="1">
  <advance width="600"/>
  <unicode hex="0049"/>
  <outline>
    <contour>
      <point x="293" y="0" type="line"/>
      <point x="403" y="623" type="line"/>
      <point x="308" y="623" type="line"/>
      <point x="198" y="0" type="line"/>
    </contour>
    <contour>
      <point x="444" y="0" type="line"/>
      <point x="456" y="69" type="line"/>
      <point x="58" y="69" type="line"/>
      <point x="46" y="0" type="line"/>
    </contour>
    <contour>
      <point x="542" y="557" type="line"/>
      <point x="554" y="626" type="line"/>
      <point x="156" y="626" type="line"/>
      <point x="144" y="557" type="line"/>
    </contour>
  </outline>
</glyph>
<glyph name="J" format="1">
  <advance width="600"/>
  <unicode hex="004A"/>
  <outline>
    <contour>
      <point x="305" y="-6"/>
      <point x="385" y="97"/>
      <point x="427" y="343" type="curve" smooth="yes"/>
      <point x="466" y="557" type="line"/>
      <point x="561" y="557" type="line"/>
      <point x="573" y="626" type="line"/>
      <point x="244" y="626" type="line"/>
      <point x="232" y="557" type="line"/>
      <point x="371" y="557" type="line"/>
      <point x="320" y="270" type="line" smooth="yes"/>
      <point x="295" y="132"/>
      <point x="233" y="72"/>
      <point x="156" y="72" type="curve" smooth="yes"/>
      <point x="92" y="72"/>
      <point x="47" y="112"/>
      <point x="47" y="112" type="curve"/>
      <point x="33" y="30" type="line"/>
      <point x="33" y="30"/>
      <point x="74" y="-6"/>
      <point x="154" y="-6" type="curve" smooth="yes"/>
    </contour>
  </outline>
</glyph>
<glyph name="K" format="1">
  <advance width="600"/>
  <unicode hex="004B"/>
  <outline>
    <contour>
      <point x="123" y="0" type="line"/>
      <point x="165" y="241" type="line"/>
      <point x="193" y="269" type="line"/>
      <point x="349" y="0" type="line"/>
      <point x="459" y="0" type="line"/>
      <point x="255" y="331" type="line"/>
      <point x="553" y="626" type="line"/>
      <point x="452" y="626" type="line"/>
      <point x="185" y="350" type="line"/>
      <point x="233" y="625" type="line"/>
      <point x="140" y="625" type="line"/>
      <point x="30" y="0" type="line"/>
    </contour>
  </outline>
</glyph>
<glyph name="L" format="1">
  <advance width="600"/>
  <unicode hex="004C"/>
  <outline>
    <contour>
      <point x="141" y="0" type="line"/>
      <point x="251" y="626" type="line"/>
      <point x="156" y="626" type="line"/>
      <point x="46" y="0" type="line"/>
    </contour>
    <contour>
      <point x="444" y="0" type="line"/>
      <point x="456" y="69" type="line"/>
      <point x="58" y="69" type="line"/>
      <point x="46" y="0" type="line"/>
    </contour>
  </outline>
</glyph>
<glyph name="M" format="1">
  <advance width="600"/>
  <unicode hex="004D"/>
  <outline>
    <contour>
      <point x="462" y="0" type="line"/>
      <point x="572" y="626" type="line"/>
      <point x="482" y="626" type="line"/>
      <point x="372" y="0" type="line"/>
    </contour>
    <contour>
      <point x="117" y="0" type="line"/>
      <point x="227" y="626" type="line"/>
      <point x="137" y="626" type="line"/>
      <point x="27" y="0" type="line"/>
    </contour>
    <contour>
      <point x="321" y="217" type="line"/>
      <point x="227" y="625" type="line"/>
      <point x="172" y="564" type="line"/>
      <point x="245" y="217" type="line"/>
    </contour>
    <contour>
      <point x="321" y="217" type="line"/>
      <point x="516" y="564" type="line"/>
      <point x="483" y="626" type="line"/>
      <point x="245" y="217" type="line"/>
    </contour>
  </outline>
</glyph>
<glyph name="O" format="1">
  <advance width="600"/>
  <unicode hex="004F"/>
  <outline>
    <contour>
      <point x="413" y="-6"/>
      <point x="519" y="142"/>
      <point x="549" y="312" type="curve" smooth="yes"/>
      <point x="579" y="483"/>
      <point x="528" y="632"/>
      <point x="357" y="632" type="curve" smooth="yes"/>
      <point x="186" y="632"/>
      <point x="81" y="483"/>
      <point x="51" y="312" type="curve" smooth="yes"/>
      <point x="21" y="142"/>
      <point x="73" y="-6"/>
      <point x="243" y="-6" type="curve" smooth="yes"/>
    </contour>
    <contour>
      <point x="136" y="70"/>
      <point x="118" y="191"/>
      <point x="140" y="312" type="curve" smooth="yes"/>
      <point x="162" y="433"/>
      <point x="222" y="556"/>
      <point x="343" y="556" type="curve" smooth="yes"/>
      <point x="464" y="556"/>
      <point x="482" y="433"/>
      <point x="460" y="312" type="curve" smooth="yes"/>
      <point x="438" y="191"/>
      <point x="378" y="70"/>
      <point x="257" y="70" type="curve" smooth="yes"/>
    </contour>
  </outline>
</glyph>
<glyph name="P" format="1">
  <advance width="600"/>
  <unicode hex="0050"/>
  <outline>
    <contour>
      <point x="131" y="0" type="line"/>
      <point x="171" y="225" type="line"/>
      <point x="418" y="228"/>
      <point x="499" y="275"/>
      <point x="528" y="432" type="curve" smooth="yes"/>
      <point x="553" y="578"/>
      <point x="488" y="621"/>
      <point x="241" y="623" type="curve"/>
      <point x="241" y="623" type="line"/>
      <point x="148" y="623" type="line"/>
      <point x="38" y="0" type="line"/>
    </contour>
    <contour>
      <point x="228" y="549" type="line"/>
      <point x="407" y="549"/>
      <point x="454" y="521"/>
      <point x="437" y="429" type="curve" smooth="yes"/>
      <point x="420" y="329"/>
      <point x="363" y="299"/>
      <point x="184" y="299" type="curve"/>
    </contour>
  </outline>
</glyph>
<glyph name="Q" format="1">
  <advance width="600"/>
  <unicode hex="0051"/>
  <outline>
    <contour>
      <point x="499" y="-3" type="line"/>
      <point x="433" y="67" type="line"/>
      <point x="493" y="123"/>
      <point x="537" y="210"/>
      <point x="554" y="312" type="curve" smooth="yes"/>
      <point x="591" y="518"/>
      <point x="523" y="632"/>
      <point x="362" y="632" type="curve" smooth="yes"/>
      <point x="201" y="632"/>
      <point x="93" y="518"/>
      <point x="56" y="312" type="curve" smooth="yes"/>
      <point x="21" y="107"/>
      <point x="89" y="-6"/>
      <point x="250" y="-6" type="curve" smooth="yes"/>
      <point x="288" y="-6"/>
      <point x="326" y="2"/>
      <point x="358" y="17" type="curve"/>
      <point x="438" y="-72" type="line"/>
    </contour>
    <contour>
      <point x="159" y="70"/>
      <point x="118" y="156"/>
      <point x="145" y="312" type="curve" smooth="yes"/>
      <point x="174" y="470"/>
      <point x="245" y="556"/>
      <point x="349" y="556" type="curve" smooth="yes"/>
      <point x="453" y="556"/>
      <point x="494" y="470"/>
      <point x="465" y="312" type="curve" smooth="yes"/>
      <point x="438" y="156"/>
      <point x="367" y="70"/>
      <point x="263" y="70" type="curve" smooth="yes"/>
    </contour>
  </outline>
</glyph>
<glyph name="R" format="1">
  <advance width="600"/>
  <unicode hex="0052"/>
  <outline>
    <contour>
      <point x="127" y="0" type="line"/>
      <point x="176" y="278" type="line"/>
      <point x="237" y="278" type="line" smooth="yes"/>
      <point x="352" y="278"/>
      <point x="354" y="0"/>
      <point x="354" y="0" type="curve"/>
      <point x="456" y="0" type="line"/>
      <point x="456" y="0"/>
      <point x="439" y="301"/>
      <point x="356" y="301" type="curve"/>
      <point x="435" y="320"/>
      <point x="469" y="366"/>
      <point x="484" y="450" type="curve" smooth="yes"/>
      <point x="503" y="562"/>
      <point x="462" y="623"/>
      <point x="328" y="623" type="curve"/>
      <point x="307" y="623" type="line"/>
      <point x="144" y="623" type="line"/>
      <point x="34" y="0" type="line"/>
    </contour>
    <contour>
      <point x="225" y="550" type="line"/>
      <point x="303" y="550" type="line" smooth="yes"/>
      <point x="386" y="550"/>
      <point x="416" y="517"/>
      <point x="404" y="455" type="curve" smooth="yes"/>
      <point x="392" y="386"/>
      <point x="341" y="348"/>
      <point x="258" y="348" type="curve" smooth="yes"/>
      <point x="190" y="348" type="line"/>
    </contour>
  </outline>
</glyph>
<glyph name="S" format="1">
  <advance width="600"/>
  <unicode hex="0053"/>
  <outline>
    <contour>
      <point x="362" y="-6"/>
      <point x="468" y="66"/>
      <point x="486" y="173" type="curve" smooth="yes"/>
      <point x="523" y="376"/>
      <point x="186" y="329"/>
      <point x="212" y="475" type="curve" smooth="yes"/>
      <point x="218" y="514"/>
      <point x="250" y="549"/>
      <point x="344" y="549" type="curve" smooth="yes"/>
      <point x="422" y="549"/>
      <point x="508" y="515"/>
      <point x="508" y="515" type="curve"/>
      <point x="522" y="594" type="line"/>
      <point x="522" y="594"/>
      <point x="435" y="628"/>
      <point x="348" y="628" type="curve" smooth="yes"/>
      <point x="222" y="628"/>
      <point x="140" y="557"/>
      <point x="124" y="468" type="curve" smooth="yes"/>
      <point x="89" y="274"/>
      <point x="426" y="304"/>
      <point x="402" y="164" type="curve" smooth="yes"/>
      <point x="387" y="83"/>
      <point x="273" y="73"/>
      <point x="228" y="73" type="curve" smooth="yes"/>
      <point x="143" y="73"/>
      <point x="53" y="110"/>
      <point x="53" y="110" type="curve"/>
      <point x="37" y="23" type="line"/>
      <point x="70" y="14"/>
      <point x="110" y="-6"/>
      <point x="212" y="-6" type="curve" smooth="yes"/>
    </contour>
  </outline>
</glyph>
<glyph name="T" format="1">
  <advance width="600"/>
  <unicode hex="0054"/>
  <outline>
    <contour>
      <point x="293" y="1" type="line"/>
      <point x="391" y="556" type="line"/>
      <point x="542" y="556" type="line"/>
      <point x="554" y="625" type="line"/>
      <point x="156" y="625" type="line"/>
      <point x="144" y="556" type="line"/>
      <point x="296" y="556" type="line"/>
      <point x="198" y="1" type="line"/>
    </contour>
  </outline>
</glyph>
<glyph name="U" format="1">
  <advance width="600"/>
  <unicode hex="0055"/>
  <outline>
    <contour>
      <point x="397" y="-6"/>
      <point x="489" y="77"/>
      <point x="518" y="244" type="curve" smooth="yes"/>
      <point x="586" y="626" type="line"/>
      <point x="497" y="626" type="line"/>
      <point x="429" y="244" type="line" smooth="yes"/>
      <point x="409" y="126"/>
      <point x="351" y="67"/>
      <point x="257" y="67" type="curve" smooth="yes"/>
      <point x="163" y="67"/>
      <point x="127" y="126"/>
      <point x="147" y="244" type="curve" smooth="yes"/>
      <point x="215" y="626" type="line"/>
      <point x="126" y="626" type="line"/>
      <point x="58" y="244" type="line" smooth="yes"/>
      <point x="29" y="77"/>
      <point x="91" y="-6"/>
      <point x="244" y="-6" type="curve" smooth="yes"/>
    </contour>
  </outline>
</glyph>
<glyph name="W" format="1">
  <advance width="600"/>
  <unicode hex="0057"/>
  <outline>
    <contour>
      <point x="99" y="0" type="line"/>
      <point x="163" y="0" type="line"/>
      <point x="164" y="0" type="line"/>
      <point x="298" y="254" type="line"/>
      <point x="341" y="0" type="line"/>
      <point x="342" y="0" type="line"/>
      <point x="405" y="0" type="line"/>
      <point x="412" y="0" type="line"/>
      <point x="631" y="626" type="line"/>
      <point x="554" y="626" type="line"/>
      <point x="386" y="132" type="line"/>
      <point x="354" y="353" type="line"/>
      <point x="354" y="353"/>
      <point x="277" y="353"/>
      <point x="277" y="353" type="curve"/>
      <point x="161" y="124" type="line"/>
      <point x="156" y="626" type="line"/>
      <point x="79" y="626" type="line"/>
      <point x="92" y="0" type="line"/>
    </contour>
  </outline>
</glyph>
<glyph name="Y" format="1">
  <advance width="600"/>
  <unicode hex="0059"/>
  <outline>
    <contour>
      <point x="293" y="0" type="line"/>
      <point x="352" y="335" type="line"/>
      <point x="338" y="297" type="line"/>
      <point x="599" y="626" type="line"/>
      <point x="510" y="626" type="line"/>
      <point x="301" y="353" type="line"/>
      <point x="318" y="353" type="line"/>
      <point x="200" y="626" type="line"/>
      <point x="111" y="626" type="line"/>
      <point x="263" y="295" type="line"/>
      <point x="260" y="332" type="line"/>
      <point x="202" y="0" type="line"/>
    </contour>
  </outline>
</glyph>
<glyph name="Z" format="1">
  <advance width="600"/>
  <unicode hex="005A"/>
  <outline>
    <contour>
      <point x="465" y="0" type="line"/>
      <point x="479" y="80" type="line"/>
      <point x="140" y="80" type="line"/>
      <point x="552" y="546" type="line"/>
      <point x="552" y="546" type="line"/>
      <point x="566" y="626" type="line"/>
      <point x="144" y="626" type="line"/>
      <point x="130" y="546" type="line"/>
      <point x="445" y="546" type="line"/>
      <point x="39" y="80" type="line"/>
      <point x="25" y="0" type="line"/>
    </contour>
  </outline>
</glyph>
<glyph name="bracketleft" format="1">
  <advance width="600"/>
  <unicode hex="005B"/>
  <outline>
    <contour>
      <point x="320" y="-198" type="line"/>
      <point x="328" y="-148" type="line"/>
      <point x="199" y="-148" type="line"/>
      <point x="338" y="636" type="line"/>
      <point x="467" y="636" type="line"/>
      <point x="474" y="675" type="line"/>
      <point x="280" y="675" type="line"/>
      <point x="126" y="-198" type="line"/>
    </contour>
  </outline>
</glyph>
<glyph name="bracketright" format="1">
  <advance width="600"/>
  <unicode hex="005D"/>
  <outline>
    <contour>
      <point x="320" y="-198" type="line"/>
      <point x="474" y="675" type="line"/>
      <point x="280" y="675" type="line"/>
      <point x="273" y="636" type="line"/>
      <point x="392" y="636" type="line"/>
      <point x="253" y="-148" type="line"/>
      <point x="134" y="-148" type="line"/>
      <point x="126" y="-198" type="line"/>
    </contour>
  </outline>
</glyph>
<glyph name="a" format="1">
  <advance width="600"/>
  <unicode hex="0061"/>
  <outline>
    <contour>
      <point x="456" y="1" type="line"/>
      <point x="456" y="1"/>
      <point x="490" y="197"/>
      <point x="511" y="315" type="curve" smooth="yes"/>
      <point x="532" y="437"/>
      <point x="452" y="489"/>
      <point x="333" y="489" type="curve" smooth="yes"/>
      <point x="242" y="489"/>
      <point x="163" y="458"/>
      <point x="163" y="458" type="curve"/>
      <point x="149" y="376" type="line"/>
      <point x="195" y="395"/>
      <point x="271" y="414"/>
      <point x="330" y="414" type="curve" smooth="yes"/>
      <point x="396" y="414"/>
      <point x="441" y="390"/>
      <point x="426" y="312" type="curve" smooth="yes"/>
      <point x="414" y="246"/>
      <point x="372" y="1"/>
      <point x="372" y="1" type="curve"/>
    </contour>
    <contour>
      <point x="322" y="-5"/>
      <point x="412" y="55"/>
      <point x="412" y="55" type="curve"/>
      <point x="402" y="111" type="line"/>
      <point x="402" y="111"/>
      <point x="312" y="57"/>
      <point x="242" y="57" type="curve" smooth="yes"/>
      <point x="187" y="57"/>
      <point x="152" y="90"/>
      <point x="160" y="135" type="curve" smooth="yes"/>
      <point x="174" y="218"/>
      <point x="310" y="203"/>
      <point x="416" y="203" type="curve"/>
      <point x="428" y="272" type="line"/>
      <point x="232" y="272"/>
      <point x="96" y="272"/>
      <point x="71" y="130" type="curve"/>
      <point x="56" y="43"/>
      <point x="98" y="-5"/>
      <point x="203" y="-5" type="curve" smooth="yes"/>
    </contour>
  </outline>
</glyph>
<glyph name="b" format="1">
  <advance width="600"/>
  <unicode hex="0062"/>
  <outline>
    <contour>
      <point x="411" y="-6"/>
      <point x="457" y="92"/>
      <point x="481" y="232" type="curve" smooth="yes"/>
      <point x="516" y="433"/>
      <point x="457" y="488"/>
      <point x="349" y="488" type="curve" smooth="yes"/>
      <point x="187" y="488"/>
      <point x="161" y="361"/>
      <point x="161" y="361" type="curve"/>
      <point x="152" y="301" type="line"/>
      <point x="152" y="301"/>
      <point x="229" y="413"/>
      <point x="325" y="413" type="curve" smooth="yes"/>
      <point x="396" y="413"/>
      <point x="420" y="352"/>
      <point x="398" y="229" type="curve" smooth="yes"/>
      <point x="382" y="134"/>
      <point x="347" y="59"/>
      <point x="220" y="59" type="curve" smooth="yes"/>
      <point x="147" y="59"/>
      <point x="57" y="84"/>
      <point x="57" y="84" type="curve"/>
      <point x="44" y="13" type="line"/>
      <point x="44" y="13"/>
      <point x="124" y="-6"/>
      <point x="213" y="-6" type="curve" smooth="yes"/>
    </contour>
    <contour>
      <point x="127" y="13" type="line"/>
      <point x="244" y="675" type="line"/>
      <point x="161" y="675" type="line"/>
      <point x="44" y="13" type="line"/>
    </contour>
  </outline>
</glyph>
<glyph name="c" format="1">
  <advance width="600"/>
  <unicode hex="0063"/>
  <outline>
    <contour>
      <point x="389" y="-6"/>
      <point x="461" y="30"/>
      <point x="461" y="30" type="curve"/>
      <point x="474" y="106" type="line"/>
      <point x="474" y="106"/>
      <point x="396" y="69"/>
      <point x="307" y="69" type="curve" smooth="yes"/>
      <point x="209" y="69"/>
      <point x="173" y="123"/>
      <point x="191" y="240" type="curve" smooth="yes"/>
      <point x="213" y="358"/>
      <point x="269" y="413"/>
      <point x="368" y="413" type="curve" smooth="yes"/>
      <point x="457" y="413"/>
      <point x="523" y="376"/>
      <point x="523" y="376" type="curve"/>
      <point x="536" y="451" type="line"/>
      <point x="536" y="451"/>
      <point x="478" y="488"/>
      <point x="357" y="488" type="curve" smooth="yes"/>
      <point x="219" y="488"/>
      <point x="138" y="410"/>
      <point x="101" y="240" type="curve" smooth="yes"/>
      <point x="77" y="71"/>
      <point x="130" y="-6"/>
      <point x="268" y="-6" type="curve" smooth="yes"/>
    </contour>
  </outline>
</glyph>
<glyph name="d" format="1">
  <advance width="600"/>
  <unicode hex="0064"/>
  <outline>
    <contour>
      <point x="350" y="-6"/>
      <point x="409" y="131"/>
      <point x="409" y="131" type="curve"/>
      <point x="415" y="181" type="line"/>
      <point x="415" y="181"/>
      <point x="338" y="69"/>
      <point x="242" y="69" type="curve" smooth="yes"/>
      <point x="171" y="69"/>
      <point x="147" y="130"/>
      <point x="168" y="253" type="curve" smooth="yes"/>
      <point x="188" y="367"/>
      <point x="227" y="424"/>
      <point x="346" y="424" type="curve" smooth="yes"/>
      <point x="427" y="424"/>
      <point x="511" y="398"/>
      <point x="511" y="398" type="curve"/>
      <point x="523" y="470" type="line"/>
      <point x="523" y="470"/>
      <point x="443" y="488"/>
      <point x="354" y="488" type="curve" smooth="yes"/>
      <point x="174" y="488"/>
      <point x="114" y="409"/>
      <point x="86" y="250" type="curve" smooth="yes"/>
      <point x="56" y="79"/>
      <point x="113" y="-6"/>
      <point x="218" y="-6" type="curve" smooth="yes"/>
    </contour>
    <contour>
      <point x="440" y="0" type="line"/>
      <point x="559" y="675" type="line"/>
      <point x="476" y="675" type="line"/>
      <point x="357" y="0" type="line"/>
    </contour>
  </outline>
</glyph>
<glyph name="e" format="1">
  <advance width="600"/>
  <unicode hex="0065"/>
  <outline>
    <contour>
      <point x="389" y="-6"/>
      <point x="461" y="30"/>
      <point x="461" y="30" type="curve"/>
      <point x="474" y="106" type="line"/>
      <point x="474" y="106"/>
      <point x="387" y="69"/>
      <point x="307" y="69" type="curve" smooth="yes"/>
      <point x="209" y="69"/>
      <point x="171" y="115"/>
      <point x="189" y="232" type="curve"/>
      <point x="520" y="232" type="line"/>
      <point x="554" y="423"/>
      <point x="504" y="489"/>
      <point x="369" y="489" type="curve" smooth="yes"/>
      <point x="209" y="489"/>
      <point x="130" y="402"/>
      <point x="100" y="230" type="curve"/>
      <point x="76" y="61"/>
      <point x="130" y="-6"/>
      <point x="268" y="-6" type="curve" smooth="yes"/>
    </contour>
    <contour>
      <point x="210" y="367"/>
      <point x="275" y="419"/>
      <point x="350" y="417" type="curve" smooth="yes"/>
      <point x="414" y="415"/>
      <point x="463" y="376"/>
      <point x="449" y="296" type="curve"/>
      <point x="198" y="296" type="line"/>
    </contour>
  </outline>
</glyph>
<glyph name="f" format="1">
  <advance width="600"/>
  <unicode hex="0066"/>
  <outline>
    <contour>
      <point x="242" y="0" type="line"/>
      <point x="330" y="500" type="line" smooth="yes"/>
      <point x="347" y="597"/>
      <point x="378" y="610"/>
      <point x="430" y="610" type="curve" smooth="yes"/>
      <point x="499" y="610"/>
      <point x="530" y="586"/>
      <point x="530" y="586" type="curve"/>
      <point x="543" y="660" type="line"/>
      <point x="543" y="660"/>
      <point x="498" y="680"/>
      <point x="429" y="680" type="curve" smooth="yes"/>
      <point x="330" y="680"/>
      <point x="273" y="640"/>
      <point x="248" y="500" type="curve" smooth="yes"/>
      <point x="235" y="423"/>
      <point x="160" y="0"/>
      <point x="160" y="0" type="curve"/>
    </contour>
    <contour>
      <point x="499" y="338" type="line"/>
      <point x="511" y="407" type="line"/>
      <point x="113" y="407" type="line"/>
      <point x="101" y="338" type="line"/>
    </contour>
  </outline>
</glyph>
<glyph name="g" format="1">
  <advance width="600"/>
  <unicode hex="0067"/>
  <outline>
    <contour>
      <point x="427" y="-206"/>
      <point x="452" y="-126"/>
      <point x="489" y="82" type="curve" smooth="yes"/>
      <point x="502" y="159"/>
      <point x="554" y="456"/>
      <point x="554" y="456" type="curve"/>
      <point x="476" y="479" type="line"/>
      <point x="406" y="82" type="line" smooth="yes"/>
      <point x="379" y="-71"/>
      <point x="366" y="-131"/>
      <point x="252" y="-131" type="curve" smooth="yes"/>
      <point x="163" y="-131"/>
      <point x="84" y="-95"/>
      <point x="84" y="-95" type="curve"/>
      <point x="71" y="-170" type="line"/>
      <point x="71" y="-170"/>
      <point x="129" y="-206"/>
      <point x="251" y="-206" type="curve" smooth="yes"/>
    </contour>
    <contour>
      <point x="393" y="-6"/>
      <point x="444" y="144"/>
      <point x="444" y="144" type="curve"/>
      <point x="451" y="187" type="line"/>
      <point x="451" y="187"/>
      <point x="372" y="69"/>
      <point x="276" y="69" type="curve" smooth="yes"/>
      <point x="199" y="69"/>
      <point x="183" y="145"/>
      <point x="203" y="253" type="curve" smooth="yes"/>
      <point x="225" y="377"/>
      <point x="274" y="424"/>
      <point x="381" y="424" type="curve" smooth="yes"/>
      <point x="467" y="424"/>
      <point x="544" y="398"/>
      <point x="544" y="398" type="curve"/>
      <point x="557" y="470" type="line"/>
      <point x="557" y="470"/>
      <point x="477" y="488"/>
      <point x="388" y="488" type="curve" smooth="yes"/>
      <point x="225" y="488"/>
      <point x="151" y="423"/>
      <point x="120" y="250" type="curve" smooth="yes"/>
      <point x="95" y="107"/>
      <point x="115" y="-6"/>
      <point x="244" y="-6" type="curve" smooth="yes"/>
    </contour>
  </outline>
</glyph>
<glyph name="h" format="1">
  <advance width="600"/>
  <unicode hex="0068"/>
  <outline>
    <contour>
      <point x="440" y="0" type="line"/>
      <point x="492" y="295" type="line" smooth="yes"/>
      <point x="514" y="427"/>
      <point x="441" y="488"/>
      <point x="359" y="488" type="curve" smooth="yes"/>
      <point x="258" y="488"/>
      <point x="174" y="395"/>
      <point x="174" y="395" type="curve"/>
      <point x="160" y="311" type="line"/>
      <point x="160" y="311"/>
      <point x="224" y="413"/>
      <point x="320" y="413" type="curve" smooth="yes"/>
      <point x="379" y="413"/>
      <point x="424" y="375"/>
      <point x="409" y="292" type="curve" smooth="yes"/>
      <point x="358" y="0" type="line"/>
    </contour>
    <contour>
      <point x="125" y="0" type="line"/>
      <point x="243" y="675" type="line"/>
      <point x="160" y="675" type="line"/>
      <point x="42" y="0" type="line"/>
    </contour>
  </outline>
</glyph>
<glyph name="i" format="1">
  <advance width="600"/>
  <unicode hex="0069"/>
  <outline>
    <contour>
      <point x="315" y="-6"/>
      <point x="368" y="-2"/>
      <point x="392" y="5" type="curve"/>
      <point x="404" y="75" type="line"/>
      <point x="385" y="71"/>
      <point x="365" y="69"/>
      <point x="346" y="69" type="curve" smooth="yes"/>
      <point x="288" y="69"/>
      <point x="271" y="88"/>
      <point x="286" y="168" type="curve"/>
      <point x="341" y="479" type="line" smooth="yes"/>
      <point x="170" y="479" type="line"/>
      <point x="158" y="411" type="line"/>
      <point x="246" y="411" type="line"/>
      <point x="223" y="283" type="line" smooth="yes"/>
      <point x="198" y="136"/>
      <point x="143" y="-6"/>
      <point x="290" y="-6" type="curve" smooth="yes"/>
    </contour>
    <contour>
      <point x="355" y="612"/>
      <point x="386" y="639"/>
      <point x="392" y="676" type="curve" smooth="yes"/>
      <point x="399" y="713"/>
      <point x="378" y="740"/>
      <point x="341" y="740" type="curve" smooth="yes"/>
      <point x="303" y="740"/>
      <point x="271" y="713"/>
      <point x="264" y="676" type="curve" smooth="yes"/>
      <point x="258" y="639"/>
      <point x="280" y="612"/>
      <point x="318" y="612" type="curve" smooth="yes"/>
    </contour>
  </outline>
</glyph>
<glyph name="j" format="1">
  <advance width="600"/>
  <unicode hex="006A"/>
  <outline>
    <contour>
      <point x="318" y="-206"/>
      <point x="387" y="-164"/>
      <point x="418" y="12" type="curve" smooth="yes"/>
      <point x="431" y="89"/>
      <point x="500" y="479"/>
      <point x="500" y="479" type="curve"/>
      <point x="418" y="479" type="line"/>
      <point x="339" y="32" type="line" smooth="yes"/>
      <point x="315" y="-106"/>
      <point x="286" y="-131"/>
      <point x="185" y="-131" type="curve"/>
      <point x="118" y="-131"/>
      <point x="63" y="-109"/>
      <point x="63" y="-109" type="curve"/>
      <point x="50" y="-186" type="line"/>
      <point x="50" y="-186"/>
      <point x="115" y="-206"/>
      <point x="184" y="-206" type="curve" smooth="yes"/>
    </contour>
    <contour>
      <point x="484" y="411" type="line"/>
      <point x="496" y="479" type="line"/>
      <point x="238" y="479" type="line"/>
      <point x="226" y="411" type="line"/>
    </contour>
    <contour>
      <point x="502" y="612"/>
      <point x="535" y="640"/>
      <point x="541" y="676" type="curve" smooth="yes"/>
      <point x="548" y="712"/>
      <point x="525" y="740"/>
      <point x="490" y="740" type="curve" smooth="yes"/>
      <point x="453" y="740"/>
      <point x="420" y="712"/>
      <point x="413" y="676" type="curve" smooth="yes"/>
      <point x="407" y="640"/>
      <point x="430" y="612"/>
      <point x="467" y="612" type="curve" smooth="yes"/>
    </contour>
  </outline>
</glyph>
<glyph name="k" format="1">
  <advance width="600"/>
  <unicode hex="006B"/>
  <outline>
    <contour>
      <point x="125" y="0" type="line"/>
      <point x="243" y="675" type="line"/>
      <point x="160" y="675" type="line"/>
      <point x="42" y="0" type="line"/>
    </contour>
    <contour>
      <point x="440" y="0" type="line"/>
      <point x="273" y="307" type="line"/>
      <point x="203" y="246" type="line"/>
      <point x="331" y="0" type="line"/>
    </contour>
    <contour>
      <point x="524" y="479" type="line"/>
      <point x="415" y="479" type="line"/>
      <point x="113" y="221" type="line"/>
      <point x="153" y="163" type="line"/>
    </contour>
  </outline>
</glyph>
<glyph name="l" format="1">
  <advance width="600"/>
  <unicode hex="006C"/>
  <outline>
    <contour>
      <point x="352" y="-6"/>
      <point x="375" y="-2"/>
      <point x="399" y="5" type="curve"/>
      <point x="411" y="75" type="line"/>
      <point x="392" y="71"/>
      <point x="372" y="69"/>
      <point x="353" y="69" type="curve" smooth="yes"/>
      <point x="273" y="69"/>
      <point x="292" y="168"/>
      <point x="307" y="248" type="curve"/>
      <point x="374" y="626" type="line" smooth="yes"/>
      <point x="203" y="626" type="line"/>
      <point x="191" y="558" type="line"/>
      <point x="279" y="558" type="line"/>
      <point x="230" y="283" type="line" smooth="yes"/>
      <point x="205" y="136"/>
      <point x="180" y="-6"/>
      <point x="327" y="-6" type="curve" smooth="yes"/>
    </contour>
  </outline>
</glyph>
<glyph name="m" format="1">
  <advance width="600"/>
  <unicode hex="006D"/>
  <outline>
    <contour>
      <point x="298" y="0" type="line"/>
      <point x="316" y="102"/>
      <point x="334" y="203"/>
      <point x="351" y="305" type="curve" smooth="yes"/>
      <point x="366" y="391"/>
      <point x="371" y="488"/>
      <point x="289" y="488" type="curve" smooth="yes"/>
      <point x="229" y="488"/>
      <point x="189" y="437"/>
      <point x="150" y="385" type="curve"/>
      <point x="167" y="302" type="line"/>
      <point x="176" y="357"/>
      <point x="184" y="413"/>
      <point x="239" y="413" type="curve" smooth="yes"/>
      <point x="295" y="413"/>
      <point x="287" y="355"/>
      <point x="277" y="302" type="curve" smooth="yes"/>
      <point x="260" y="202"/>
      <point x="242" y="101"/>
      <point x="224" y="0" type="curve"/>
    </contour>
    <contour>
      <point x="114" y="0" type="line"/>
      <point x="199" y="479" type="line"/>
      <point x="117" y="479" type="line"/>
      <point x="32" y="0" type="line"/>
    </contour>
    <contour>
      <point x="482" y="0" type="line"/>
      <point x="500" y="102"/>
      <point x="518" y="203"/>
      <point x="535" y="305" type="curve" smooth="yes"/>
      <point x="550" y="391"/>
      <point x="551" y="488"/>
      <point x="469" y="488" type="curve" smooth="yes"/>
      <point x="410" y="488"/>
      <point x="372" y="437"/>
      <point x="335" y="385" type="curve"/>
      <point x="351" y="302" type="line"/>
      <point x="361" y="358"/>
      <point x="371" y="413"/>
      <point x="427" y="413" type="curve" smooth="yes"/>
      <point x="485" y="413"/>
      <point x="471" y="355"/>
      <point x="461" y="302" type="curve" smooth="yes"/>
      <point x="444" y="202"/>
      <point x="426" y="101"/>
      <point x="408" y="0" type="curve"/>
    </contour>
  </outline>
</glyph>
<glyph name="n" format="1">
  <advance width="600"/>
  <unicode hex="006E"/>
  <outline>
    <contour>
      <point x="456" y="0" type="line"/>
      <point x="508" y="295" type="line" smooth="yes"/>
      <point x="531" y="427"/>
      <point x="457" y="488"/>
      <point x="375" y="488" type="curve" smooth="yes"/>
      <point x="274" y="488"/>
      <point x="191" y="395"/>
      <point x="191" y="395" type="curve"/>
      <point x="177" y="311" type="line"/>
      <point x="177" y="311"/>
      <point x="241" y="413"/>
      <point x="337" y="413" type="curve" smooth="yes"/>
      <point x="396" y="413"/>
      <point x="440" y="375"/>
      <point x="425" y="292" type="curve" smooth="yes"/>
      <point x="374" y="0" type="line"/>
    </contour>
    <contour>
      <point x="141" y="0" type="line"/>
      <point x="226" y="479" type="line"/>
      <point x="143" y="479" type="line"/>
      <point x="58" y="0" type="line"/>
    </contour>
  </outline>
</glyph>
<glyph name="o" format="1">
  <advance width="600"/>
  <unicode hex="006F"/>
  <outline>
    <contour>
      <point x="392" y="-6"/>
      <point x="496" y="102"/>
      <point x="521" y="244" type="curve" smooth="yes"/>
      <point x="546" y="385"/>
      <point x="480" y="488"/>
      <point x="341" y="488" type="curve" smooth="yes"/>
      <point x="200" y="488"/>
      <point x="104" y="383"/>
      <point x="79" y="244" type="curve" smooth="yes"/>
      <point x="55" y="105"/>
      <point x="111" y="-6"/>
      <point x="252" y="-6" type="curve" smooth="yes"/>
    </contour>
    <contour>
      <point x="171" y="64"/>
      <point x="150" y="151"/>
      <point x="165" y="243" type="curve" smooth="yes"/>
      <point x="182" y="338"/>
      <point x="237" y="420"/>
      <point x="330" y="420" type="curve" smooth="yes"/>
      <point x="423" y="420"/>
      <point x="453" y="338"/>
      <point x="436" y="243" type="curve" smooth="yes"/>
      <point x="421" y="151"/>
      <point x="361" y="64"/>
      <point x="266" y="64" type="curve" smooth="yes"/>
    </contour>
  </outline>
</glyph>
<glyph name="p" format="1">
  <advance width="600"/>
  <unicode hex="0070"/>
  <outline>
    <contour>
      <point x="392" y="-7"/>
      <point x="487" y="78"/>
      <point x="514" y="230" type="curve" smooth="yes"/>
      <point x="536" y="351"/>
      <point x="505" y="490"/>
      <point x="379" y="488" type="curve" smooth="yes"/>
      <point x="298" y="487"/>
      <point x="246" y="429"/>
      <point x="194" y="361" type="curve"/>
      <point x="182" y="301" type="line"/>
      <point x="233" y="362"/>
      <point x="295" y="413"/>
      <point x="358" y="413" type="curve" smooth="yes"/>
      <point x="446" y="413"/>
      <point x="442" y="291"/>
      <point x="432" y="227" type="curve" smooth="yes"/>
      <point x="412" y="120"/>
      <point x="353" y="59"/>
      <point x="249" y="59" type="curve" smooth="yes"/>
      <point x="209" y="59"/>
      <point x="143" y="68"/>
      <point x="91" y="84" type="curve"/>
      <point x="79" y="18" type="line"/>
      <point x="134" y="8"/>
      <point x="162" y="-6"/>
      <point x="227" y="-6" type="curve" smooth="yes"/>
    </contour>
    <contour>
      <point x="124" y="-198" type="line"/>
      <point x="243" y="479" type="line"/>
      <point x="160" y="479" type="line"/>
      <point x="41" y="-198" type="line"/>
    </contour>
    <contour>
      <point x="301" y="0" type="move"/>
    </contour>
  </outline>
</glyph>
<glyph name="q" format="1">
  <advance width="600"/>
  <unicode hex="0071"/>
  <outline>
    <contour>
      <point x="335" y="-6"/>
      <point x="385" y="56"/>
      <point x="439" y="121" type="curve"/>
      <point x="455" y="211" type="line"/>
      <point x="414" y="144"/>
      <point x="338" y="69"/>
      <point x="276" y="69" type="curve" smooth="yes"/>
      <point x="188" y="69"/>
      <point x="196" y="222"/>
      <point x="208" y="283" type="curve" smooth="yes"/>
      <point x="225" y="380"/>
      <point x="274" y="424"/>
      <point x="380" y="424" type="curve" smooth="yes"/>
      <point x="437" y="424"/>
      <point x="490" y="411"/>
      <point x="544" y="398" type="curve"/>
      <point x="556" y="470" type="line"/>
      <point x="501" y="482"/>
      <point x="445" y="488"/>
      <point x="387" y="488" type="curve" smooth="yes"/>
      <point x="191" y="488"/>
      <point x="150" y="422"/>
      <point x="125" y="280" type="curve" smooth="yes"/>
      <point x="94" y="108"/>
      <point x="121" y="-6"/>
      <point x="252" y="-6" type="curve" smooth="yes"/>
    </contour>
    <contour>
      <point x="439" y="-198" type="line"/>
      <point x="556" y="470" type="line"/>
      <point x="473" y="470" type="line"/>
      <point x="356" y="-198" type="line"/>
    </contour>
  </outline>
</glyph>
<glyph name="r" format="1">
  <advance width="600"/>
  <unicode hex="0072"/>
  <outline>
    <contour>
      <point x="181" y="0" type="line"/>
      <point x="266" y="479" type="line"/>
      <point x="183" y="479" type="line"/>
      <point x="98" y="0" type="line"/>
    </contour>
    <contour>
      <point x="253" y="360"/>
      <point x="340" y="413"/>
      <point x="402" y="413" type="curve" smooth="yes"/>
      <point x="463" y="413"/>
      <point x="474" y="362"/>
      <point x="463" y="300" type="curve"/>
      <point x="547" y="300" type="line"/>
      <point x="569" y="407"/>
      <point x="535" y="488"/>
      <point x="428" y="488" type="curve" smooth="yes"/>
      <point x="337" y="488"/>
      <point x="275" y="430"/>
      <point x="217" y="366" type="curve"/>
      <point x="205" y="295" type="line"/>
    </contour>
  </outline>
</glyph>
<glyph name="s" format="1">
  <advance width="600"/>
  <unicode hex="0073"/>
  <outline>
    <contour>
      <point x="368" y="-6"/>
      <point x="461" y="30"/>
      <point x="481" y="142" type="curve" smooth="yes"/>
      <point x="499" y="248"/>
      <point x="430" y="276"/>
      <point x="316" y="288" type="curve" smooth="yes"/>
      <point x="231" y="297"/>
      <point x="199" y="318"/>
      <point x="206" y="355" type="curve" smooth="yes"/>
      <point x="213" y="390"/>
      <point x="247" y="413"/>
      <point x="330" y="413" type="curve" smooth="yes"/>
      <point x="399" y="413"/>
      <point x="446" y="398"/>
      <point x="497" y="377" type="curve"/>
      <point x="512" y="460" type="line"/>
      <point x="456" y="478"/>
      <point x="404" y="488"/>
      <point x="347" y="488" type="curve" smooth="yes"/>
      <point x="238" y="488"/>
      <point x="140" y="451"/>
      <point x="122" y="348" type="curve" smooth="yes"/>
      <point x="103" y="243"/>
      <point x="176" y="214"/>
      <point x="272" y="206" type="curve" smooth="yes"/>
      <point x="354" y="199"/>
      <point x="406" y="184"/>
      <point x="398" y="136" type="curve" smooth="yes"/>
      <point x="389" y="92"/>
      <point x="341" y="68"/>
      <point x="257" y="68" type="curve" smooth="yes"/>
      <point x="191" y="68"/>
      <point x="132" y="83"/>
      <point x="77" y="105" type="curve"/>
      <point x="63" y="25" type="line"/>
      <point x="117" y="2"/>
      <point x="176" y="-6"/>
      <point x="237" y="-6" type="curve" smooth="yes"/>
    </contour>
  </outline>
</glyph>
<glyph name="t" format="1">
  <advance width="600"/>
  <unicode hex="0074"/>
  <outline>
    <contour>
      <point x="376" y="-6"/>
      <point x="402" y="-4"/>
      <point x="440" y="3" type="curve"/>
      <point x="454" y="79" type="line"/>
      <point x="413" y="71"/>
      <point x="392" y="69"/>
      <point x="371" y="69" type="curve" smooth="yes"/>
      <point x="280" y="69"/>
      <point x="262" y="104"/>
      <point x="282" y="225" type="curve" smooth="yes"/>
      <point x="362" y="675" type="line"/>
      <point x="280" y="675" type="line"/>
      <point x="280" y="675"/>
      <point x="215" y="302"/>
      <point x="200" y="225" type="curve" smooth="yes"/>
      <point x="168" y="44"/>
      <point x="200" y="-6"/>
      <point x="347" y="-6" type="curve" smooth="yes"/>
    </contour>
    <contour>
      <point x="512" y="411" type="line"/>
      <point x="524" y="479" type="line"/>
      <point x="126" y="479" type="line"/>
      <point x="114" y="411" type="line"/>
    </contour>
  </outline>
</glyph>
<glyph name="u" format="1">
  <advance width="600"/>
  <unicode hex="0075"/>
  <outline>
    <contour>
      <point x="329" y="-6"/>
      <point x="368" y="56"/>
      <point x="424" y="121" type="curve"/>
      <point x="437" y="203" type="line"/>
      <point x="396" y="136"/>
      <point x="332" y="69"/>
      <point x="259" y="69" type="curve" smooth="yes"/>
      <point x="171" y="69"/>
      <point x="170" y="165"/>
      <point x="186" y="253" type="curve" smooth="yes"/>
      <point x="225" y="479" type="line"/>
      <point x="143" y="479" type="line"/>
      <point x="103" y="250" type="line"/>
      <point x="81" y="120"/>
      <point x="106" y="-6"/>
      <point x="237" y="-6" type="curve" smooth="yes"/>
    </contour>
    <contour>
      <point x="457" y="0" type="line"/>
      <point x="541" y="479" type="line"/>
      <point x="458" y="479" type="line"/>
      <point x="374" y="0" type="line"/>
    </contour>
  </outline>
</glyph>
<glyph name="v" format="1">
  <advance width="600"/>
  <unicode hex="0076"/>
  <outline>
    <contour>
      <point x="301" y="0" type="line"/>
      <point x="578" y="479" type="line"/>
      <point x="502" y="479" type="line"/>
      <point x="274" y="88" type="line"/>
      <point x="283" y="88" type="line"/>
      <point x="195" y="479" type="line"/>
      <point x="106" y="479" type="line"/>
      <point x="215" y="0" type="line"/>
    </contour>
  </outline>
</glyph>
<glyph name="w" format="1">
  <advance width="600"/>
  <unicode hex="0077"/>
  <outline>
    <contour>
      <point x="168" y="0" type="line"/>
      <point x="168" y="0" type="line"/>
      <point x="296" y="230" type="line"/>
      <point x="347" y="0" type="line"/>
      <point x="347" y="0" type="line"/>
      <point x="416" y="0" type="line"/>
      <point x="612" y="479" type="line"/>
      <point x="539" y="479" type="line"/>
      <point x="384" y="87" type="line"/>
      <point x="401" y="87" type="line"/>
      <point x="349" y="316" type="line"/>
      <point x="273" y="316" type="line"/>
      <point x="155" y="82" type="line"/>
      <point x="163" y="82" type="line"/>
      <point x="146" y="479" type="line"/>
      <point x="71" y="479" type="line"/>
      <point x="100" y="0" type="line"/>
    </contour>
  </outline>
</glyph>
<glyph name="x" format="1">
  <advance width="600"/>
  <unicode hex="0078"/>
  <outline>
    <contour>
      <point x="115" y="0" type="line"/>
      <point x="297" y="194" type="line"/>
      <point x="297" y="194"/>
      <point x="281" y="194"/>
      <point x="281" y="194" type="curve"/>
      <point x="399" y="0" type="line"/>
      <point x="504" y="0" type="line"/>
      <point x="349" y="248" type="line"/>
      <point x="349" y="248"/>
      <point x="345" y="231"/>
      <point x="345" y="231" type="curve"/>
      <point x="588" y="479" type="line"/>
      <point x="489" y="479" type="line"/>
      <point x="297" y="279" type="line"/>
      <point x="297" y="279"/>
      <point x="317" y="279"/>
      <point x="317" y="279" type="curve"/>
      <point x="199" y="479" type="line"/>
      <point x="95" y="479" type="line"/>
      <point x="249" y="233" type="line"/>
      <point x="249" y="233"/>
      <point x="258" y="248"/>
      <point x="258" y="248" type="curve"/>
      <point x="16" y="0" type="line"/>
    </contour>
  </outline>
</glyph>
<glyph name="y" format="1">
  <advance width="600"/>
  <unicode hex="0079"/>
  <outline>
    <contour>
      <point x="216" y="-206"/>
      <point x="319" y="0"/>
      <point x="319" y="0" type="curve"/>
      <point x="596" y="479" type="line"/>
      <point x="513" y="479" type="line"/>
      <point x="294" y="105" type="line"/>
      <point x="207" y="479" type="line"/>
      <point x="124" y="479" type="line"/>
      <point x="233" y="1" type="line"/>
      <point x="232" y="0" type="line"/>
      <point x="232" y="0"/>
      <point x="150" y="-132"/>
      <point x="52" y="-132" type="curve"/>
      <point x="39" y="-206" type="line"/>
    </contour>
  </outline>
</glyph>
<glyph name="z" format="1">
  <advance width="600"/>
  <unicode hex="007A"/>
  <outline>
    <contour>
      <point x="517" y="411" type="line"/>
      <point x="473" y="455" type="line"/>
      <point x="72" y="68" type="line"/>
      <point x="116" y="24" type="line"/>
    </contour>
    <contour>
      <point x="457" y="0" type="line"/>
      <point x="469" y="68" type="line"/>
      <point x="71" y="68" type="line"/>
      <point x="59" y="0" type="line"/>
    </contour>
    <contour>
      <point x="517" y="411" type="line"/>
      <point x="529" y="479" type="line"/>
      <point x="155" y="479" type="line"/>
      <point x="143" y="411" type="line"/>
    </contour>
  </outline>
</glyph>
<glyph name="braceleft" format="1">
  <advance width="600"/>
  <unicode hex="007B"/>
  <outline>
    <contour>
      <point x="422" y="-129" type="line"/>
      <point x="304" y="-129"/>
      <point x="291" y="-91"/>
      <point x="308" y="7" type="curve" smooth="yes"/>
      <point x="337" y="165"/>
      <point x="332" y="219"/>
      <point x="234" y="241" type="curve"/>
      <point x="341" y="265"/>
      <point x="367" y="336"/>
      <point x="392" y="474" type="curve" smooth="yes"/>
      <point x="409" y="572"/>
      <point x="434" y="610"/>
      <point x="552" y="610" type="curve"/>
      <point x="564" y="680" type="line"/>
      <point x="447" y="680"/>
      <point x="344" y="661"/>
      <point x="312" y="474" type="curve" smooth="yes"/>
      <point x="280" y="297"/>
      <point x="259" y="279"/>
      <point x="120" y="279" type="curve"/>
      <point x="120" y="279"/>
      <point x="108" y="212"/>
      <point x="108" y="212" type="curve"/>
      <point x="245" y="203"/>
      <point x="260" y="184"/>
      <point x="228" y="7" type="curve" smooth="yes"/>
      <point x="196" y="-180"/>
      <point x="293" y="-199"/>
      <point x="410" y="-199" type="curve"/>
    </contour>
  </outline>
</glyph>
<glyph name="bar" format="1">
  <advance width="600"/>
  <unicode hex="007C"/>
  <outline>
    <contour>
      <point x="189" y="-198"/>
      <point x="246" y="-198"/>
      <point x="246" y="-198" type="curve"/>
      <point x="400" y="675" type="line"/>
      <point x="400" y="675"/>
      <point x="343" y="675"/>
      <point x="343" y="675" type="curve"/>
      <point x="189" y="-198" type="line"/>
    </contour>
  </outline>
</glyph>
<glyph name="braceright" format="1">
  <advance width="600"/>
  <unicode hex="007D"/>
  <outline>
    <contour>
      <point x="153" y="-199"/>
      <point x="256" y="-180"/>
      <point x="288" y="7" type="curve" smooth="yes"/>
      <point x="320" y="184"/>
      <point x="341" y="203"/>
      <point x="482" y="212" type="curve"/>
      <point x="482" y="212"/>
      <point x="494" y="279"/>
      <point x="494" y="279" type="curve"/>
      <point x="355" y="279"/>
      <point x="340" y="297"/>
      <point x="372" y="474" type="curve" smooth="yes"/>
      <point x="404" y="661"/>
      <point x="307" y="680"/>
      <point x="190" y="680" type="curve"/>
      <point x="178" y="610" type="line"/>
      <point x="296" y="610"/>
      <point x="309" y="572"/>
      <point x="292" y="474" type="curve" smooth="yes"/>
      <point x="267" y="336"/>
      <point x="269" y="265"/>
      <point x="366" y="241" type="curve"/>
      <point x="260" y="219"/>
      <point x="237" y="165"/>
      <point x="208" y="7" type="curve" smooth="yes"/>
      <point x="191" y="-91"/>
      <point x="166" y="-129"/>
      <point x="48" y="-129" type="curve"/>
      <point x="36" y="-199" type="line"/>
    </contour>
  </outline>
</glyph>
<glyph name="exclamdown" format="1">
  <advance width="600"/>
  <unicode hex="00A1"/>
  <outline>
    <contour>
      <point x="343" y="-198" type="line"/>
      <point x="336" y="239" type="line"/>
      <point x="264" y="239" type="line"/>
      <point x="257" y="-198" type="line"/>
    </contour>
    <contour>
      <point x="341" y="364" type="line"/>
      <point x="341" y="477" type="line"/>
      <point x="260" y="477" type="line"/>
      <point x="260" y="364" type="line"/>
    </contour>
  </outline>
</glyph>
<glyph name="cent" format="1">
  <advance width="600"/>
  <unicode hex="00A2"/>
  <outline>
    <contour>
      <point x="384" y="88"/>
      <point x="448" y="121"/>
      <point x="448" y="121" type="curve"/>
      <point x="461" y="189" type="line"/>
      <point x="461" y="189"/>
      <point x="390" y="157"/>
      <point x="310" y="157" type="curve" smooth="yes"/>
      <point x="232" y="157"/>
      <point x="184" y="174"/>
      <point x="205" y="309" type="curve" smooth="yes"/>
      <point x="231" y="444"/>
      <point x="288" y="465"/>
      <point x="366" y="465" type="curve" smooth="yes"/>
      <point x="446" y="465"/>
      <point x="504" y="431"/>
      <point x="504" y="431" type="curve"/>
      <point x="516" y="500" type="line"/>
      <point x="516" y="500"/>
      <point x="463" y="533"/>
      <point x="354" y="533" type="curve" smooth="yes"/>
      <point x="216" y="533"/>
      <point x="155" y="447"/>
      <point x="124" y="309" type="curve"/>
      <point x="107" y="171"/>
      <point x="138" y="88"/>
      <point x="275" y="88" type="curve" smooth="yes"/>
    </contour>
    <contour>
      <point x="223" y="-99"/>
      <point x="284" y="-99"/>
      <point x="284" y="-99" type="curve"/>
      <point x="422" y="676" type="line"/>
      <point x="361" y="676" type="line"/>
      <point x="223" y="-99" type="line"/>
    </contour>
  </outline>
</glyph>
<glyph name="copyright" format="1">
  <advance width="600"/>
  <unicode hex="00A9"/>
  <outline>
    <contour>
      <point x="393" y="302"/>
      <point x="466" y="374"/>
      <point x="466" y="466" type="curve" smooth="yes"/>
      <point x="466" y="557"/>
      <point x="393" y="632"/>
      <point x="303" y="632" type="curve" smooth="yes"/>
      <point x="211" y="632"/>
      <point x="138" y="557"/>
      <point x="138" y="466" type="curve" smooth="yes"/>
      <point x="138" y="374"/>
      <point x="211" y="302"/>
      <point x="303" y="302" type="curve" smooth="yes"/>
    </contour>
    <contour>
      <point x="342" y="383"/>
      <point x="361" y="395"/>
      <point x="361" y="395" type="curve"/>
      <point x="361" y="422" type="line"/>
      <point x="361" y="422"/>
      <point x="338" y="409"/>
      <point x="308" y="409" type="curve" smooth="yes"/>
      <point x="274" y="409"/>
      <point x="259" y="429"/>
      <point x="258" y="466" type="curve" smooth="yes"/>
      <point x="257" y="507"/>
      <point x="274" y="525"/>
      <point x="310" y="525" type="curve" smooth="yes"/>
      <point x="338" y="525"/>
      <point x="361" y="514"/>
      <point x="361" y="514" type="curve"/>
      <point x="361" y="538" type="line"/>
      <point x="361" y="538"/>
      <point x="342" y="550"/>
      <point x="300" y="550" type="curve" smooth="yes"/>
      <point x="255" y="550"/>
      <point x="231" y="525"/>
      <point x="231" y="466" type="curve" smooth="yes"/>
      <point x="231" y="411"/>
      <point x="255" y="383"/>
      <point x="300" y="383" type="curve" smooth="yes"/>
    </contour>
    <contour>
      <point x="228" y="332"/>
      <point x="169" y="392"/>
      <point x="169" y="466" type="curve" smooth="yes"/>
      <point x="169" y="541"/>
      <point x="228" y="600"/>
      <point x="303" y="600" type="curve"/>
      <point x="377" y="600"/>
      <point x="437" y="541"/>
      <point x="437" y="466" type="curve" smooth="yes"/>
      <point x="437" y="392"/>
      <point x="377" y="332"/>
      <point x="303" y="332" type="curve" smooth="yes"/>
    </contour>
  </outline>
</glyph>
<glyph name="degree" format="1">
  <advance width="600"/>
  <unicode hex="00B0"/>
  <outline>
    <contour>
      <point x="236" y="447"/>
      <point x="276" y="487"/>
      <point x="276" y="537" type="curve" smooth="yes"/>
      <point x="276" y="587"/>
      <point x="236" y="627"/>
      <point x="186" y="627" type="curve" smooth="yes"/>
      <point x="136" y="627"/>
      <point x="96" y="587"/>
      <point x="96" y="537" type="curve" smooth="yes"/>
      <point x="96" y="487"/>
      <point x="136" y="447"/>
      <point x="186" y="447" type="curve" smooth="yes"/>
    </contour>
    <contour>
      <point x="163" y="493"/>
      <point x="143" y="513"/>
      <point x="143" y="538" type="curve" smooth="yes"/>
      <point x="143" y="561"/>
      <point x="163" y="582"/>
      <point x="188" y="582" type="curve" smooth="yes"/>
      <point x="211" y="582"/>
      <point x="231" y="561"/>
      <point x="231" y="538" type="curve" smooth="yes"/>
      <point x="231" y="513"/>
      <point x="211" y="493"/>
      <point x="188" y="493" type="curve" smooth="yes"/>
    </contour>
  </outline>
</glyph>
<glyph name="plusminus" format="1">
  <advance width="600"/>
  <unicode hex="00B1"/>
  <outline>
    <contour>
      <point x="324" y="147" type="line"/>
      <point x="324" y="489" type="line"/>
      <point x="275" y="489" type="line"/>
      <point x="275" y="147" type="line"/>
    </contour>
    <contour>
      <point x="470" y="0" type="line"/>
      <point x="470" y="48" type="line"/>
      <point x="129" y="48" type="line"/>
      <point x="129" y="0" type="line"/>
    </contour>
    <contour>
      <point x="470" y="293" type="line"/>
      <point x="470" y="341" type="line"/>
      <point x="129" y="341" type="line"/>
      <point x="129" y="293" type="line"/>
    </contour>
  </outline>
</glyph>
<glyph name="twosuperior" format="1">
  <advance width="600"/>
  <unicode hex="00B2"/>
  <outline>
    <contour>
      <point x="395" y="357" type="line"/>
      <point x="395" y="392" type="line"/>
      <point x="257" y="392" type="line"/>
      <point x="350" y="487" type="line"/>
      <point x="350" y="487"/>
      <point x="377" y="515"/>
      <point x="377" y="555" type="curve" smooth="yes"/>
      <point x="377" y="604"/>
      <point x="348" y="629"/>
      <point x="292" y="629" type="curve" smooth="yes"/>
      <point x="244" y="629"/>
      <point x="205" y="602"/>
      <point x="205" y="602" type="curve"/>
      <point x="205" y="563" type="line"/>
      <point x="205" y="563"/>
      <point x="248" y="597"/>
      <point x="289" y="597" type="curve" smooth="yes"/>
      <point x="322" y="597"/>
      <point x="340" y="580"/>
      <point x="340" y="555" type="curve" smooth="yes"/>
      <point x="340" y="526"/>
      <point x="325" y="512"/>
      <point x="325" y="512" type="curve"/>
      <point x="205" y="386" type="line"/>
      <point x="205" y="357" type="line"/>
    </contour>
  </outline>
</glyph>
<glyph name="uni00B5" format="1">
  <advance width="600"/>
  <unicode hex="00B5"/>
  <outline>
    <contour>
      <point x="127" y="-199" type="line"/>
      <point x="247" y="479" type="line"/>
      <point x="164" y="479" type="line"/>
      <point x="44" y="-199" type="line"/>
    </contour>
    <component base="u" xOffset="26" yxScale="0"/>
  </outline>
</glyph>
<glyph name="questiondown" format="1">
  <advance width="600"/>
  <unicode hex="00BF"/>
  <outline>
    <contour>
      <point x="394" y="-188"/>
      <point x="510" y="-133"/>
      <point x="510" y="-7" type="curve" smooth="yes"/>
      <point x="510" y="97"/>
      <point x="336" y="128"/>
      <point x="336" y="214" type="curve" smooth="yes"/>
      <point x="336" y="248" type="line"/>
      <point x="243" y="248" type="line"/>
      <point x="243" y="211" type="line" smooth="yes"/>
      <point x="243" y="93"/>
      <point x="420" y="65"/>
      <point x="420" y="-16" type="curve" smooth="yes"/>
      <point x="420" y="-119"/>
      <point x="293" y="-110"/>
      <point x="293" y="-110" type="curve"/>
      <point x="180" y="-110"/>
      <point x="135" y="-48"/>
      <point x="135" y="-48" type="curve"/>
      <point x="90" y="-105" type="line"/>
      <point x="90" y="-105"/>
      <point x="172" y="-188"/>
      <point x="293" y="-188" type="curve" smooth="yes"/>
    </contour>
    <contour>
      <point x="336" y="390" type="line"/>
      <point x="336" y="487" type="line"/>
      <point x="243" y="487" type="line"/>
      <point x="243" y="390" type="line"/>
    </contour>
  </outline>
</glyph>
<glyph name="Atilde" format="1">
  <advance width="600"/>
  <unicode hex="00C3"/>
  <outline>
    <contour>
      <point x="501" y="684"/>
      <point x="546" y="752"/>
      <point x="546" y="752" type="curve"/>
      <point x="546" y="752"/>
      <point x="505" y="791"/>
      <point x="505" y="791" type="curve"/>
      <point x="505" y="791"/>
      <point x="482" y="745"/>
      <point x="443" y="745" type="curve" smooth="yes"/>
      <point x="400" y="745"/>
      <point x="373" y="798"/>
      <point x="306" y="798" type="curve" smooth="yes"/>
      <point x="238" y="798"/>
      <point x="201" y="728"/>
      <point x="201" y="728" type="curve"/>
      <point x="242" y="690" type="line"/>
      <point x="242" y="690"/>
      <point x="264" y="736"/>
      <point x="303" y="736" type="curve" smooth="yes"/>
      <point x="341" y="736"/>
      <point x="382" y="684"/>
      <point x="442" y="684" type="curve" smooth="yes"/>
    </contour>
    <contour>
      <point x="107" y="0" type="line"/>
    </contour>
    <component base="A" xOffset="25" yxScale="0"/>
  </outline>
</glyph>
<glyph name="Adieresis" format="1">
  <advance width="600"/>
  <unicode hex="00C4"/>
  <outline>
    <contour>
      <point x="483" y="675"/>
      <point x="507" y="699"/>
      <point x="507" y="729" type="curve" smooth="yes"/>
      <point x="507" y="758"/>
      <point x="483" y="783"/>
      <point x="453" y="783" type="curve" smooth="yes"/>
      <point x="423" y="783"/>
      <point x="400" y="758"/>
      <point x="400" y="729" type="curve" smooth="yes"/>
      <point x="400" y="699"/>
      <point x="423" y="675"/>
      <point x="453" y="675" type="curve" smooth="yes"/>
    </contour>
    <contour>
      <point x="274" y="675"/>
      <point x="297" y="699"/>
      <point x="297" y="729" type="curve" smooth="yes"/>
      <point x="297" y="758"/>
      <point x="274" y="783"/>
      <point x="243" y="783" type="curve" smooth="yes"/>
      <point x="214" y="783"/>
      <point x="191" y="758"/>
      <point x="191" y="729" type="curve" smooth="yes"/>
      <point x="191" y="699"/>
      <point x="214" y="675"/>
      <point x="243" y="675" type="curve" smooth="yes"/>
    </contour>
    <component base="A" yxScale="0"/>
  </outline>
</glyph>
<glyph name="Aring" format="1">
  <advance width="600"/>
  <unicode hex="00C5"/>
  <outline>
    <contour>
      <point x="402" y="676"/>
      <point x="445" y="719"/>
      <point x="445" y="773" type="curve" smooth="yes"/>
      <point x="445" y="826"/>
      <point x="402" y="869"/>
      <point x="349" y="869" type="curve" smooth="yes"/>
      <point x="295" y="869"/>
      <point x="252" y="826"/>
      <point x="252" y="773" type="curve" smooth="yes"/>
      <point x="252" y="719"/>
      <point x="295" y="676"/>
      <point x="349" y="676" type="curve" smooth="yes"/>
    </contour>
    <contour>
      <point x="325" y="729"/>
      <point x="305" y="748"/>
      <point x="305" y="773" type="curve" smooth="yes"/>
      <point x="305" y="796"/>
      <point x="325" y="816"/>
      <point x="349" y="816" type="curve" smooth="yes"/>
      <point x="373" y="816"/>
      <point x="392" y="796"/>
      <point x="392" y="773" type="curve" smooth="yes"/>
      <point x="392" y="748"/>
      <point x="373" y="729"/>
      <point x="349" y="729" type="curve" smooth="yes"/>
    </contour>
    <component base="A" yxScale="0"/>
  </outline>
</glyph>
<glyph name="AE" format="1">
  <advance width="600"/>
  <unicode hex="00C6"/>
  <outline>
    <contour>
      <point x="58" y="0" type="line"/>
      <point x="350" y="556" type="line"/>
      <point x="362" y="626" type="line"/>
      <point x="317" y="626" type="line"/>
      <point x="-20" y="0" type="line"/>
    </contour>
    <contour>
      <point x="315" y="160" type="line"/>
      <point x="324" y="212" type="line"/>
      <point x="100" y="212" type="line"/>
      <point x="91" y="160" type="line"/>
    </contour>
    <contour>
      <point x="510" y="0" type="line"/>
      <point x="521" y="62" type="line"/>
      <point x="322" y="62" type="line"/>
      <point x="363" y="293" type="line"/>
      <point x="517" y="293" type="line"/>
      <point x="526" y="347" type="line"/>
      <point x="372" y="347" type="line"/>
      <point x="410" y="564" type="line"/>
      <point x="609" y="564" type="line"/>
      <point x="620" y="626" type="line"/>
      <point x="362" y="626" type="line"/>
      <point x="252" y="0" type="line"/>
    </contour>
  </outline>
</glyph>
<glyph name="Ccedilla" format="1">
  <advance width="600"/>
  <unicode hex="00C7"/>
  <outline>
    <contour>
      <point x="263" y="-170" type="line"/>
      <point x="371" y="0" type="line"/>
      <point x="371" y="43" type="line"/>
      <point x="245" y="43" type="line"/>
      <point x="245" y="0" type="line"/>
      <point x="192" y="-170" type="line"/>
    </contour>
    <component base="C" yxScale="0"/>
  </outline>
</glyph>
<glyph name="Iacute" format="1">
  <advance width="600"/>
  <unicode hex="00CD"/>
  <outline>
    <contour>
      <point x="389" y="691" type="line"/>
      <point x="525" y="792" type="line"/>
      <point x="407" y="792" type="line"/>
      <point x="306" y="691" type="line"/>
    </contour>
    <component base="I" yxScale="0"/>
  </outline>
</glyph>
<glyph name="Ntilde" format="1">
  <advance width="600"/>
  <unicode hex="00D1"/>
  <outline>
    <contour>
      <point x="476" y="684"/>
      <point x="521" y="752"/>
      <point x="521" y="752" type="curve"/>
      <point x="521" y="752"/>
      <point x="480" y="791"/>
      <point x="480" y="791" type="curve"/>
      <point x="480" y="791"/>
      <point x="457" y="745"/>
      <point x="418" y="745" type="curve" smooth="yes"/>
      <point x="375" y="745"/>
      <point x="348" y="798"/>
      <point x="281" y="798" type="curve" smooth="yes"/>
      <point x="213" y="798"/>
      <point x="176" y="728"/>
      <point x="176" y="728" type="curve"/>
      <point x="217" y="690" type="line"/>
      <point x="217" y="690"/>
      <point x="239" y="736"/>
      <point x="278" y="736" type="curve" smooth="yes"/>
      <point x="316" y="736"/>
      <point x="357" y="684"/>
      <point x="417" y="684" type="curve" smooth="yes"/>
    </contour>
    <component base="N" yxScale="0"/>
  </outline>
</glyph>
<glyph name="Ograve" format="1">
  <advance width="600"/>
  <unicode hex="00D2"/>
  <outline>
    <contour>
      <point x="392" y="691" type="line"/>
      <point x="291" y="792" type="line"/>
      <point x="173" y="792" type="line"/>
      <point x="309" y="691" type="line"/>
    </contour>
    <component base="O" yxScale="0"/>
  </outline>
</glyph>
<glyph name="Ocircumflex" format="1">
  <advance width="600"/>
  <unicode hex="00D4"/>
  <outline>
    <contour>
      <point x="310" y="691" type="line"/>
      <point x="351" y="740" type="line"/>
      <point x="392" y="691" type="line"/>
      <point x="479" y="691" type="line"/>
      <point x="389" y="792" type="line"/>
      <point x="309" y="792" type="line"/>
      <point x="225" y="691" type="line"/>
    </contour>
    <component base="O" yxScale="0"/>
  </outline>
</glyph>
<glyph name="Otilde" format="1">
  <advance width="600"/>
  <unicode hex="00D5"/>
  <outline>
    <contour>
      <point x="478" y="684"/>
      <point x="523" y="752"/>
      <point x="523" y="752" type="curve"/>
      <point x="523" y="752"/>
      <point x="482" y="791"/>
      <point x="482" y="791" type="curve"/>
      <point x="482" y="791"/>
      <point x="459" y="745"/>
      <point x="419" y="745" type="curve" smooth="yes"/>
      <point x="377" y="745"/>
      <point x="350" y="798"/>
      <point x="283" y="798" type="curve" smooth="yes"/>
      <point x="215" y="798"/>
      <point x="178" y="728"/>
      <point x="178" y="728" type="curve"/>
      <point x="219" y="690" type="line"/>
      <point x="219" y="690"/>
      <point x="241" y="736"/>
      <point x="280" y="736" type="curve" smooth="yes"/>
      <point x="318" y="736"/>
      <point x="359" y="684"/>
      <point x="418" y="684" type="curve" smooth="yes"/>
    </contour>
    <component base="O" yxScale="0"/>
  </outline>
</glyph>
<glyph name="Ugrave" format="1">
  <advance width="600"/>
  <unicode hex="00D9"/>
  <outline>
    <contour>
      <point x="390" y="691" type="line"/>
      <point x="289" y="792" type="line"/>
      <point x="171" y="792" type="line"/>
      <point x="307" y="691" type="line"/>
    </contour>
    <component base="U" yxScale="0"/>
  </outline>
</glyph>
<glyph name="Ucircumflex" format="1">
  <advance width="600"/>
  <unicode hex="00DB"/>
  <outline>
    <contour>
      <point x="401" y="-6"/>
      <point x="477" y="110"/>
      <point x="501" y="244" type="curve" smooth="yes"/>
      <point x="568" y="626" type="line"/>
      <point x="479" y="626" type="line"/>
      <point x="412" y="244" type="line" smooth="yes"/>
      <point x="394" y="141"/>
      <point x="353" y="67"/>
      <point x="240" y="67" type="curve" smooth="yes"/>
      <point x="128" y="67"/>
      <point x="111" y="138"/>
      <point x="130" y="244" type="curve" smooth="yes"/>
      <point x="197" y="626" type="line"/>
      <point x="108" y="626" type="line"/>
      <point x="41" y="244" type="line" smooth="yes"/>
      <point x="17" y="107"/>
      <point x="53" y="-6"/>
      <point x="227" y="-6" type="curve" smooth="yes"/>
    </contour>
    <contour>
      <point x="226" y="691" type="line"/>
    </contour>
    <contour>
      <point x="272" y="687" type="line"/>
      <point x="363" y="772" type="line"/>
      <point x="425" y="687" type="line"/>
      <point x="512" y="687" type="line"/>
      <point x="410" y="825" type="line"/>
      <point x="330" y="825" type="line"/>
      <point x="187" y="687" type="line"/>
    </contour>
  </outline>
</glyph>
<glyph name="Udieresis" format="1">
  <advance width="600"/>
  <unicode hex="00DC"/>
  <outline>
    <contour>
      <point x="276" y="675"/>
      <point x="299" y="699"/>
      <point x="299" y="729" type="curve" smooth="yes"/>
      <point x="299" y="758"/>
      <point x="276" y="783"/>
      <point x="245" y="783" type="curve" smooth="yes"/>
      <point x="216" y="783"/>
      <point x="193" y="758"/>
      <point x="193" y="729" type="curve" smooth="yes"/>
      <point x="193" y="699"/>
      <point x="216" y="675"/>
      <point x="245" y="675" type="curve" smooth="yes"/>
    </contour>
    <contour>
      <point x="485" y="675"/>
      <point x="508" y="699"/>
      <point x="508" y="729" type="curve" smooth="yes"/>
      <point x="508" y="758"/>
      <point x="485" y="783"/>
      <point x="455" y="783" type="curve" smooth="yes"/>
      <point x="425" y="783"/>
      <point x="402" y="758"/>
      <point x="402" y="729" type="curve" smooth="yes"/>
      <point x="402" y="699"/>
      <point x="425" y="675"/>
      <point x="455" y="675" type="curve" smooth="yes"/>
    </contour>
    <component base="U" yxScale="0"/>
  </outline>
</glyph>
<glyph name="Yacute" format="1">
  <advance width="600"/>
  <unicode hex="00DD"/>
  <outline>
    <contour>
      <point x="389" y="691" type="line"/>
      <point x="525" y="792" type="line"/>
      <point x="407" y="792" type="line"/>
      <point x="306" y="691" type="line"/>
    </contour>
    <component base="Y" yxScale="0"/>
  </outline>
</glyph>
<glyph name="Thorn" format="1">
  <advance width="600"/>
  <unicode hex="00DE"/>
  <outline>
    <contour>
      <point x="131" y="0" type="line"/>
      <point x="145" y="80" type="line"/>
      <point x="389" y="83"/>
      <point x="474" y="133"/>
      <point x="501" y="288" type="curve" smooth="yes"/>
      <point x="526" y="430"/>
      <point x="458" y="476"/>
      <point x="215" y="478" type="curve"/>
      <point x="215" y="478" type="line"/>
      <point x="241" y="626" type="line"/>
      <point x="148" y="626" type="line"/>
      <point x="38" y="0" type="line"/>
    </contour>
    <contour>
      <point x="202" y="404" type="line"/>
      <point x="378" y="404"/>
      <point x="428" y="376"/>
      <point x="412" y="285" type="curve" smooth="yes"/>
      <point x="395" y="186"/>
      <point x="334" y="155"/>
      <point x="158" y="155" type="curve"/>
    </contour>
  </outline>
</glyph>
<glyph name="agrave" format="1">
  <advance width="600"/>
  <unicode hex="00E0"/>
  <outline>
    <contour>
      <point x="400" y="573" type="line"/>
      <point x="299" y="675" type="line"/>
      <point x="181" y="675" type="line"/>
      <point x="317" y="573" type="line"/>
    </contour>
    <component base="a" xOffset="2" yxScale="0"/>
  </outline>
</glyph>
<glyph name="aacute" format="1">
  <advance width="600"/>
  <unicode hex="00E1"/>
  <outline>
    <contour>
      <point x="398" y="573" type="line"/>
      <point x="534" y="675" type="line"/>
      <point x="416" y="675" type="line"/>
      <point x="315" y="573" type="line"/>
    </contour>
    <component base="a" yxScale="0"/>
  </outline>
</glyph>
<glyph name="atilde" format="1">
  <advance width="600"/>
  <unicode hex="00E3"/>
  <outline>
    <contour>
      <point x="484" y="560"/>
      <point x="529" y="628"/>
      <point x="529" y="628" type="curve"/>
      <point x="529" y="628"/>
      <point x="488" y="667"/>
      <point x="488" y="667" type="curve"/>
      <point x="488" y="667"/>
      <point x="464" y="621"/>
      <point x="425" y="621" type="curve" smooth="yes"/>
      <point x="383" y="621"/>
      <point x="356" y="674"/>
      <point x="288" y="674" type="curve" smooth="yes"/>
      <point x="221" y="674"/>
      <point x="184" y="604"/>
      <point x="184" y="604" type="curve"/>
      <point x="225" y="565" type="line"/>
      <point x="225" y="565"/>
      <point x="247" y="611"/>
      <point x="285" y="611" type="curve" smooth="yes"/>
      <point x="324" y="611"/>
      <point x="365" y="560"/>
      <point x="424" y="560" type="curve" smooth="yes"/>
    </contour>
    <component base="a" yxScale="0"/>
  </outline>
</glyph>
<glyph name="adieresis" format="1">
  <advance width="600"/>
  <unicode hex="00E4"/>
  <outline>
    <contour>
      <point x="282" y="567"/>
      <point x="305" y="592"/>
      <point x="305" y="621" type="curve" smooth="yes"/>
      <point x="305" y="651"/>
      <point x="282" y="675"/>
      <point x="251" y="675" type="curve" smooth="yes"/>
      <point x="222" y="675"/>
      <point x="198" y="651"/>
      <point x="198" y="621" type="curve" smooth="yes"/>
      <point x="198" y="592"/>
      <point x="222" y="567"/>
      <point x="251" y="567" type="curve" smooth="yes"/>
    </contour>
    <contour>
      <point x="491" y="567"/>
      <point x="514" y="592"/>
      <point x="514" y="621" type="curve" smooth="yes"/>
      <point x="514" y="651"/>
      <point x="491" y="675"/>
      <point x="461" y="675" type="curve" smooth="yes"/>
      <point x="431" y="675"/>
      <point x="408" y="651"/>
      <point x="408" y="621" type="curve" smooth="yes"/>
      <point x="408" y="592"/>
      <point x="431" y="567"/>
      <point x="461" y="567" type="curve" smooth="yes"/>
    </contour>
    <component base="a" yxScale="0"/>
  </outline>
</glyph>
<glyph name="aring" format="1">
  <advance width="600"/>
  <unicode hex="00E5"/>
  <outline>
    <contour>
      <point x="410" y="538"/>
      <point x="453" y="581"/>
      <point x="453" y="635" type="curve" smooth="yes"/>
      <point x="453" y="688"/>
      <point x="410" y="731"/>
      <point x="357" y="731" type="curve" smooth="yes"/>
      <point x="303" y="731"/>
      <point x="260" y="688"/>
      <point x="260" y="635" type="curve" smooth="yes"/>
      <point x="260" y="581"/>
      <point x="303" y="538"/>
      <point x="357" y="538" type="curve" smooth="yes"/>
    </contour>
    <contour>
      <point x="332" y="591"/>
      <point x="313" y="610"/>
      <point x="313" y="635" type="curve" smooth="yes"/>
      <point x="313" y="658"/>
      <point x="332" y="678"/>
      <point x="357" y="678" type="curve" smooth="yes"/>
      <point x="380" y="678"/>
      <point x="400" y="658"/>
      <point x="400" y="635" type="curve" smooth="yes"/>
      <point x="400" y="610"/>
      <point x="380" y="591"/>
      <point x="357" y="591" type="curve" smooth="yes"/>
    </contour>
    <component base="a" yxScale="0"/>
  </outline>
</glyph>
<glyph name="eacute" format="1">
  <advance width="600"/>
  <unicode hex="00E9"/>
  <outline>
    <contour>
      <point x="390" y="573" type="line"/>
      <point x="526" y="675" type="line"/>
      <point x="408" y="675" type="line"/>
      <point x="307" y="573" type="line"/>
    </contour>
    <component base="e" yxScale="0"/>
  </outline>
</glyph>
<glyph name="edieresis" format="1">
  <advance width="600"/>
  <unicode hex="00EB"/>
  <outline>
    <contour>
      <point x="544" y="567"/>
      <point x="572" y="592"/>
      <point x="577" y="621" type="curve" smooth="yes"/>
      <point x="582" y="651"/>
      <point x="563" y="675"/>
      <point x="533" y="675" type="curve" smooth="yes"/>
      <point x="503" y="675"/>
      <point x="476" y="651"/>
      <point x="470" y="621" type="curve" smooth="yes"/>
      <point x="464" y="592"/>
      <point x="484" y="567"/>
      <point x="514" y="567" type="curve" smooth="yes"/>
    </contour>
    <contour>
      <point x="-1167" y="-6"/>
      <point x="775" y="-6"/>
      <point x="319" y="-6" type="curve" smooth="yes"/>
    </contour>
    <contour>
      <point x="335" y="567"/>
      <point x="362" y="592"/>
      <point x="367" y="621" type="curve" smooth="yes"/>
      <point x="372" y="651"/>
      <point x="354" y="675"/>
      <point x="323" y="675" type="curve" smooth="yes"/>
      <point x="294" y="675"/>
      <point x="267" y="651"/>
      <point x="261" y="621" type="curve" smooth="yes"/>
      <point x="255" y="592"/>
      <point x="275" y="567"/>
      <point x="304" y="567" type="curve" smooth="yes"/>
    </contour>
    <component base="e" xOffset="4" yxScale="0"/>
  </outline>
</glyph>
<glyph name="igrave" format="1">
  <advance width="600"/>
  <unicode hex="00EC"/>
  <outline>
    <contour>
      <point x="422" y="573" type="line"/>
      <point x="322" y="675" type="line"/>
      <point x="203" y="675" type="line"/>
      <point x="339" y="573" type="line"/>
    </contour>
    <component base="uni00B5"/>
  </outline>
</glyph>
<glyph name="iacute" format="1">
  <advance width="600"/>
  <unicode hex="00ED"/>
  <outline>
    <contour>
      <point x="347" y="-6"/>
      <point x="370" y="-2"/>
      <point x="394" y="5" type="curve"/>
      <point x="407" y="75" type="line"/>
      <point x="386" y="71"/>
      <point x="366" y="69"/>
      <point x="347" y="69" type="curve" smooth="yes"/>
      <point x="267" y="69"/>
      <point x="287" y="168"/>
      <point x="302" y="248" type="curve"/>
      <point x="342" y="479" type="line" smooth="yes"/>
      <point x="171" y="479" type="line"/>
      <point x="159" y="411" type="line"/>
      <point x="247" y="411" type="line"/>
      <point x="225" y="283" type="line" smooth="yes"/>
      <point x="199" y="136"/>
      <point x="175" y="-6"/>
      <point x="322" y="-6" type="curve" smooth="yes"/>
    </contour>
    <contour>
      <point x="360" y="573" type="line"/>
      <point x="514" y="675" type="line"/>
      <point x="396" y="675" type="line"/>
      <point x="277" y="573" type="line"/>
    </contour>
  </outline>
</glyph>
<glyph name="icircumflex" format="1">
  <advance width="600"/>
  <unicode hex="00EE"/>
  <outline>
    <contour>
      <point x="348" y="-6"/>
      <point x="371" y="-2"/>
      <point x="395" y="5" type="curve"/>
      <point x="408" y="75" type="line"/>
      <point x="387" y="71"/>
      <point x="367" y="69"/>
      <point x="348" y="69" type="curve" smooth="yes"/>
      <point x="268" y="69"/>
      <point x="288" y="168"/>
      <point x="303" y="248" type="curve"/>
      <point x="343" y="479" type="line" smooth="yes"/>
      <point x="172" y="479" type="line"/>
      <point x="160" y="411" type="line"/>
      <point x="248" y="411" type="line"/>
      <point x="226" y="283" type="line" smooth="yes"/>
      <point x="200" y="136"/>
      <point x="176" y="-6"/>
      <point x="323" y="-6" type="curve" smooth="yes"/>
    </contour>
    <contour>
      <point x="279" y="573" type="line"/>
      <point x="328" y="622" type="line"/>
      <point x="361" y="573" type="line"/>
      <point x="449" y="573" type="line"/>
      <point x="377" y="675" type="line"/>
      <point x="296" y="675" type="line"/>
      <point x="194" y="573" type="line"/>
    </contour>
  </outline>
</glyph>
<glyph name="idieresis" format="1">
  <advance width="600"/>
  <unicode hex="00EF"/>
  <outline>
    <contour>
      <point x="361" y="-6"/>
      <point x="384" y="-2"/>
      <point x="408" y="5" type="curve"/>
      <point x="421" y="75" type="line"/>
      <point x="400" y="71"/>
      <point x="380" y="69"/>
      <point x="361" y="69" type="curve" smooth="yes"/>
      <point x="281" y="69"/>
      <point x="301" y="168"/>
      <point x="316" y="248" type="curve"/>
      <point x="356" y="479" type="line" smooth="yes"/>
      <point x="185" y="479" type="line"/>
      <point x="173" y="411" type="line"/>
      <point x="261" y="411" type="line"/>
      <point x="239" y="283" type="line" smooth="yes"/>
      <point x="213" y="136"/>
      <point x="189" y="-6"/>
      <point x="336" y="-6" type="curve" smooth="yes"/>
    </contour>
    <contour>
      <point x="257" y="567"/>
      <point x="285" y="592"/>
      <point x="290" y="621" type="curve" smooth="yes"/>
      <point x="296" y="651"/>
      <point x="276" y="675"/>
      <point x="246" y="675" type="curve" smooth="yes"/>
      <point x="216" y="675"/>
      <point x="189" y="651"/>
      <point x="183" y="621" type="curve" smooth="yes"/>
      <point x="178" y="592"/>
      <point x="197" y="567"/>
      <point x="227" y="567" type="curve" smooth="yes"/>
    </contour>
    <contour>
      <point x="466" y="567"/>
      <point x="494" y="592"/>
      <point x="499" y="621" type="curve" smooth="yes"/>
      <point x="505" y="651"/>
      <point x="485" y="675"/>
      <point x="455" y="675" type="curve" smooth="yes"/>
      <point x="426" y="675"/>
      <point x="398" y="651"/>
      <point x="392" y="621" type="curve" smooth="yes"/>
      <point x="387" y="592"/>
      <point x="407" y="567"/>
      <point x="436" y="567" type="curve" smooth="yes"/>
    </contour>
  </outline>
</glyph>
<glyph name="ntilde" format="1">
  <advance width="600"/>
  <unicode hex="00F1"/>
  <outline>
    <contour>
      <point x="481" y="560"/>
      <point x="526" y="628"/>
      <point x="526" y="628" type="curve"/>
      <point x="526" y="628"/>
      <point x="485" y="667"/>
      <point x="485" y="667" type="curve"/>
      <point x="485" y="667"/>
      <point x="462" y="621"/>
      <point x="422" y="621" type="curve" smooth="yes"/>
      <point x="380" y="621"/>
      <point x="353" y="674"/>
      <point x="286" y="674" type="curve" smooth="yes"/>
      <point x="218" y="674"/>
      <point x="181" y="604"/>
      <point x="181" y="604" type="curve"/>
      <point x="222" y="565" type="line"/>
      <point x="222" y="565"/>
      <point x="244" y="611"/>
      <point x="283" y="611" type="curve" smooth="yes"/>
      <point x="321" y="611"/>
      <point x="362" y="560"/>
      <point x="422" y="560" type="curve" smooth="yes"/>
    </contour>
    <component base="n" xOffset="4" yxScale="0"/>
  </outline>
</glyph>
<glyph name="oacute" format="1">
  <advance width="600"/>
  <unicode hex="00F3"/>
  <outline>
    <contour>
      <point x="390" y="573" type="line"/>
      <point x="526" y="675" type="line"/>
      <point x="408" y="675" type="line"/>
      <point x="307" y="573" type="line"/>
    </contour>
    <component base="o" yxScale="0"/>
  </outline>
</glyph>
<glyph name="ocircumflex" format="1">
  <advance width="600"/>
  <unicode hex="00F4"/>
  <outline>
    <contour>
      <point x="308" y="573" type="line"/>
      <point x="349" y="622" type="line"/>
      <point x="390" y="573" type="line"/>
      <point x="477" y="573" type="line"/>
      <point x="387" y="675" type="line"/>
      <point x="307" y="675" type="line"/>
      <point x="223" y="573" type="line"/>
    </contour>
    <component base="o" yxScale="0"/>
  </outline>
</glyph>
<glyph name="otilde" format="1">
  <advance width="600"/>
  <unicode hex="00F5"/>
  <outline>
    <contour>
      <point x="476" y="560"/>
      <point x="521" y="628"/>
      <point x="521" y="628" type="curve"/>
      <point x="521" y="628"/>
      <point x="480" y="667"/>
      <point x="480" y="667" type="curve"/>
      <point x="480" y="667"/>
      <point x="457" y="621"/>
      <point x="418" y="621" type="curve" smooth="yes"/>
      <point x="375" y="621"/>
      <point x="348" y="674"/>
      <point x="281" y="674" type="curve" smooth="yes"/>
      <point x="213" y="674"/>
      <point x="176" y="604"/>
      <point x="176" y="604" type="curve"/>
      <point x="217" y="565" type="line"/>
      <point x="217" y="565"/>
      <point x="239" y="611"/>
      <point x="278" y="611" type="curve" smooth="yes"/>
      <point x="316" y="611"/>
      <point x="357" y="560"/>
      <point x="417" y="560" type="curve" smooth="yes"/>
    </contour>
    <component base="o" yxScale="0"/>
  </outline>
</glyph>
<glyph name="odieresis" format="1">
  <advance width="600"/>
  <unicode hex="00F6"/>
  <outline>
    <contour>
      <point x="483" y="567"/>
      <point x="507" y="592"/>
      <point x="507" y="621" type="curve" smooth="yes"/>
      <point x="507" y="651"/>
      <point x="483" y="675"/>
      <point x="453" y="675" type="curve" smooth="yes"/>
      <point x="423" y="675"/>
      <point x="400" y="651"/>
      <point x="400" y="621" type="curve" smooth="yes"/>
      <point x="400" y="592"/>
      <point x="423" y="567"/>
      <point x="453" y="567" type="curve" smooth="yes"/>
    </contour>
    <contour>
      <point x="274" y="567"/>
      <point x="297" y="592"/>
      <point x="297" y="621" type="curve" smooth="yes"/>
      <point x="297" y="651"/>
      <point x="274" y="675"/>
      <point x="243" y="675" type="curve" smooth="yes"/>
      <point x="214" y="675"/>
      <point x="191" y="651"/>
      <point x="191" y="621" type="curve" smooth="yes"/>
      <point x="191" y="592"/>
      <point x="214" y="567"/>
      <point x="243" y="567" type="curve" smooth="yes"/>
    </contour>
    <component base="o" yxScale="0"/>
  </outline>
</glyph>
<glyph name="divide" format="1">
  <advance width="600"/>
  <unicode hex="00F7"/>
  <outline>
    <contour>
      <point x="470" y="246" type="line"/>
      <point x="470" y="293" type="line"/>
      <point x="130" y="293" type="line"/>
      <point x="130" y="246" type="line"/>
    </contour>
    <contour>
      <point x="331" y="58"/>
      <point x="357" y="83"/>
      <point x="357" y="115" type="curve" smooth="yes"/>
      <point x="357" y="147"/>
      <point x="331" y="172"/>
      <point x="300" y="172" type="curve" smooth="yes"/>
      <point x="268" y="172"/>
      <point x="242" y="147"/>
      <point x="242" y="115" type="curve" smooth="yes"/>
      <point x="242" y="83"/>
      <point x="268" y="58"/>
      <point x="300" y="58" type="curve" smooth="yes"/>
    </contour>
    <contour>
      <point x="331" y="364"/>
      <point x="357" y="389"/>
      <point x="357" y="422" type="curve"/>
      <point x="357" y="449"/>
      <point x="331" y="478"/>
      <point x="300" y="478" type="curve" smooth="yes"/>
      <point x="268" y="478"/>
      <point x="242" y="453"/>
      <point x="242" y="422" type="curve" smooth="yes"/>
      <point x="242" y="389"/>
      <point x="268" y="364"/>
      <point x="300" y="364" type="curve" smooth="yes"/>
    </contour>
  </outline>
</glyph>
<glyph name="ugrave" format="1">
  <advance width="600"/>
  <unicode hex="00F9"/>
  <outline>
    <contour>
      <point x="400" y="573" type="line"/>
      <point x="299" y="675" type="line"/>
      <point x="181" y="675" type="line"/>
      <point x="317" y="573" type="line"/>
    </contour>
    <component base="u" xOffset="9" yxScale="0"/>
  </outline>
</glyph>
<glyph name="uacute" format="1">
  <advance width="600"/>
  <unicode hex="00FA"/>
  <outline>
    <contour>
      <point x="391" y="573" type="line"/>
      <point x="527" y="675" type="line"/>
      <point x="409" y="675" type="line"/>
      <point x="308" y="573" type="line"/>
    </contour>
    <component base="u" yxScale="0"/>
  </outline>
</glyph>
<glyph name="ucircumflex" format="1">
  <advance width="600"/>
  <unicode hex="00FB"/>
  <outline>
    <contour>
      <point x="309" y="573" type="line"/>
      <point x="350" y="622" type="line"/>
      <point x="391" y="573" type="line"/>
      <point x="478" y="573" type="line"/>
      <point x="388" y="675" type="line"/>
      <point x="308" y="675" type="line"/>
      <point x="224" y="573" type="line"/>
    </contour>
    <component base="u" yxScale="0"/>
  </outline>
</glyph>
<glyph name="udieresis" format="1">
  <advance width="600"/>
  <unicode hex="00FC"/>
  <outline>
    <contour>
      <point x="484" y="567"/>
      <point x="508" y="592"/>
      <point x="508" y="621" type="curve" smooth="yes"/>
      <point x="508" y="651"/>
      <point x="484" y="675"/>
      <point x="454" y="675" type="curve" smooth="yes"/>
      <point x="424" y="675"/>
      <point x="401" y="651"/>
      <point x="401" y="621" type="curve" smooth="yes"/>
      <point x="401" y="592"/>
      <point x="424" y="567"/>
      <point x="454" y="567" type="curve" smooth="yes"/>
    </contour>
    <contour>
      <point x="275" y="567"/>
      <point x="298" y="592"/>
      <point x="298" y="621" type="curve" smooth="yes"/>
      <point x="298" y="651"/>
      <point x="275" y="675"/>
      <point x="244" y="675" type="curve" smooth="yes"/>
      <point x="215" y="675"/>
      <point x="192" y="651"/>
      <point x="192" y="621" type="curve" smooth="yes"/>
      <point x="192" y="592"/>
      <point x="215" y="567"/>
      <point x="244" y="567" type="curve" smooth="yes"/>
    </contour>
    <component base="u" yxScale="0"/>
  </outline>
</glyph>
<glyph name="yacute" format="1">
  <advance width="600"/>
  <unicode hex="00FD"/>
  <outline>
    <contour>
      <point x="378" y="573" type="line"/>
      <point x="514" y="675" type="line"/>
      <point x="396" y="675" type="line"/>
      <point x="295" y="573" type="line"/>
    </contour>
    <component base="y" yxScale="0"/>
  </outline>
</glyph>
<glyph name="ydieresis" format="1">
  <advance width="600"/>
  <unicode hex="00FF"/>
  <outline>
    <contour>
      <point x="471" y="567"/>
      <point x="495" y="592"/>
      <point x="495" y="621" type="curve" smooth="yes"/>
      <point x="495" y="651"/>
      <point x="471" y="675"/>
      <point x="441" y="675" type="curve" smooth="yes"/>
      <point x="412" y="675"/>
      <point x="388" y="651"/>
      <point x="388" y="621" type="curve" smooth="yes"/>
      <point x="388" y="592"/>
      <point x="412" y="567"/>
      <point x="441" y="567" type="curve" smooth="yes"/>
    </contour>
    <contour>
      <point x="262" y="567"/>
      <point x="285" y="592"/>
      <point x="285" y="621" type="curve" smooth="yes"/>
      <point x="285" y="651"/>
      <point x="262" y="675"/>
      <point x="232" y="675" type="curve" smooth="yes"/>
      <point x="202" y="675"/>
      <point x="179" y="651"/>
      <point x="179" y="621" type="curve" smooth="yes"/>
      <point x="179" y="592"/>
      <point x="202" y="567"/>
      <point x="232" y="567" type="curve" smooth="yes"/>
    </contour>
    <component base="y" yxScale="0"/>
  </outline>
</glyph>
<glyph name="OE" format="1">
  <advance width="600"/>
  <unicode hex="0152"/>
  <outline>
    <contour>
      <point x="252" y="-6"/>
      <point x="273" y="0"/>
      <point x="291" y="0" type="curve" smooth="yes"/>
      <point x="505" y="0" type="line"/>
      <point x="516" y="62" type="line"/>
      <point x="370" y="62" type="line"/>
      <point x="411" y="293" type="line"/>
      <point x="532" y="293" type="line"/>
      <point x="541" y="347" type="line"/>
      <point x="420" y="347" type="line"/>
      <point x="458" y="564" type="line"/>
      <point x="604" y="564" type="line"/>
      <point x="615" y="626" type="line"/>
      <point x="398" y="626" type="line"/>
      <point x="382" y="630"/>
      <point x="365" y="632"/>
      <point x="346" y="632" type="curve" smooth="yes"/>
      <point x="184" y="632"/>
      <point x="77" y="520"/>
      <point x="40" y="312" type="curve" smooth="yes"/>
      <point x="3" y="105"/>
      <point x="70" y="-6"/>
      <point x="232" y="-6" type="curve" smooth="yes"/>
    </contour>
    <contour>
      <point x="304" y="71" type="line"/>
      <point x="304" y="71" type="line"/>
    </contour>
    <contour>
      <point x="140" y="61"/>
      <point x="91" y="155"/>
      <point x="119" y="312" type="curve" smooth="yes"/>
      <point x="147" y="471"/>
      <point x="228" y="565"/>
      <point x="333" y="565" type="curve" smooth="yes"/>
      <point x="353" y="565"/>
      <point x="371" y="562"/>
      <point x="384" y="555" type="curve"/>
      <point x="299" y="70" type="line"/>
      <point x="282" y="64"/>
      <point x="264" y="61"/>
      <point x="245" y="61" type="curve" smooth="yes"/>
    </contour>
  </outline>
</glyph>
<glyph name="oe" format="1">
  <advance width="600"/>
  <unicode hex="0153"/>
  <outline>
    <contour>
      <point x="437" y="-6"/>
      <point x="467" y="-3"/>
      <point x="498" y="5" type="curve"/>
      <point x="510" y="72" type="line"/>
      <point x="480" y="66"/>
      <point x="448" y="55"/>
      <point x="418" y="55" type="curve" smooth="yes"/>
      <point x="334" y="55"/>
      <point x="318" y="138"/>
      <point x="333" y="222" type="curve"/>
      <point x="572" y="222" type="line"/>
      <point x="595" y="357"/>
      <point x="610" y="488"/>
      <point x="475" y="488" type="curve" smooth="yes"/>
      <point x="348" y="488"/>
      <point x="289" y="367"/>
      <point x="267" y="240" type="curve" smooth="yes"/>
      <point x="244" y="111"/>
      <point x="278" y="-6"/>
      <point x="407" y="-6" type="curve" smooth="yes"/>
    </contour>
    <contour>
      <point x="255" y="-6"/>
      <point x="299" y="118"/>
      <point x="321" y="245" type="curve" smooth="yes"/>
      <point x="343" y="368"/>
      <point x="340" y="488"/>
      <point x="217" y="488" type="curve" smooth="yes"/>
      <point x="94" y="488"/>
      <point x="47" y="368"/>
      <point x="25" y="245" type="curve" smooth="yes"/>
      <point x="3" y="118"/>
      <point x="3" y="-6"/>
      <point x="129" y="-6" type="curve" smooth="yes"/>
    </contour>
    <contour>
      <point x="48" y="54"/>
      <point x="65" y="151"/>
      <point x="80" y="245" type="curve" smooth="yes"/>
      <point x="97" y="336"/>
      <point x="117" y="429"/>
      <point x="208" y="429" type="curve" smooth="yes"/>
      <point x="299" y="429"/>
      <point x="284" y="336"/>
      <point x="267" y="245" type="curve" smooth="yes"/>
      <point x="252" y="151"/>
      <point x="236" y="54"/>
      <point x="142" y="54" type="curve" smooth="yes"/>
    </contour>
    <contour>
      <point x="357" y="351"/>
      <point x="389" y="428"/>
      <point x="464" y="428" type="curve" smooth="yes"/>
      <point x="538" y="428"/>
      <point x="536" y="350"/>
      <point x="523" y="276" type="curve"/>
      <point x="343" y="276" type="line"/>
    </contour>
  </outline>
</glyph>
<glyph name="Scaron" format="1">
  <advance width="600"/>
  <unicode hex="0160"/>
  <outline>
    <contour>
      <point x="386" y="675" type="line"/>
      <point x="476" y="777" type="line"/>
      <point x="389" y="777" type="line"/>
      <point x="348" y="728" type="line"/>
      <point x="307" y="777" type="line"/>
      <point x="222" y="777" type="line"/>
      <point x="306" y="675" type="line"/>
    </contour>
    <component base="S" yxScale="0"/>
  </outline>
</glyph>
<glyph name="Ydieresis" format="1">
  <advance width="600"/>
  <unicode hex="0178"/>
  <outline>
    <contour>
      <point x="482" y="675"/>
      <point x="506" y="699"/>
      <point x="506" y="729" type="curve" smooth="yes"/>
      <point x="506" y="758"/>
      <point x="482" y="783"/>
      <point x="452" y="783" type="curve" smooth="yes"/>
      <point x="422" y="783"/>
      <point x="399" y="758"/>
      <point x="399" y="729" type="curve" smooth="yes"/>
      <point x="399" y="699"/>
      <point x="422" y="675"/>
      <point x="452" y="675" type="curve" smooth="yes"/>
    </contour>
    <contour>
      <point x="273" y="675"/>
      <point x="296" y="699"/>
      <point x="296" y="729" type="curve" smooth="yes"/>
      <point x="296" y="758"/>
      <point x="273" y="783"/>
      <point x="242" y="783" type="curve" smooth="yes"/>
      <point x="213" y="783"/>
      <point x="190" y="758"/>
      <point x="190" y="729" type="curve" smooth="yes"/>
      <point x="190" y="699"/>
      <point x="213" y="675"/>
      <point x="242" y="675" type="curve" smooth="yes"/>
    </contour>
    <component base="Y" yxScale="0"/>
  </outline>
</glyph>
<glyph name="Zcaron" format="1">
  <advance width="600"/>
  <unicode hex="017D"/>
  <outline>
    <contour>
      <point x="387" y="675" type="line"/>
      <point x="477" y="777" type="line"/>
      <point x="390" y="777" type="line"/>
      <point x="349" y="728" type="line"/>
      <point x="308" y="777" type="line"/>
      <point x="223" y="777" type="line"/>
      <point x="307" y="675" type="line"/>
    </contour>
    <component base="Z" yxScale="0"/>
  </outline>
</glyph>
<glyph name="zcaron" format="1">
  <advance width="600"/>
  <unicode hex="017E"/>
  <outline>
    <contour>
      <point x="388" y="573" type="line"/>
      <point x="478" y="675" type="line"/>
      <point x="391" y="675" type="line"/>
      <point x="350" y="626" type="line"/>
      <point x="309" y="675" type="line"/>
      <point x="224" y="675" type="line"/>
      <point x="308" y="573" type="line"/>
    </contour>
    <component base="z" yxScale="0"/>
  </outline>
</glyph>
<glyph name="circumflex" format="1">
  <advance width="600"/>
  <unicode hex="02C6"/>
  <outline>
    <contour>
      <point x="222" y="537" type="line"/>
      <point x="298" y="622" type="line"/>
      <point x="375" y="537" type="line"/>
      <point x="462" y="537" type="line"/>
      <point x="336" y="675" type="line"/>
      <point x="256" y="675" type="line"/>
      <point x="137" y="537" type="line"/>
    </contour>
  </outline>
</glyph>
<glyph name="uni02C9" format="1">
  <advance width="600"/>
  <unicode hex="02C9"/>
  <outline>
    <contour>
      <point x="446" y="573" type="line"/>
      <point x="446" y="632" type="line"/>
      <point x="153" y="632" type="line"/>
      <point x="153" y="573" type="line"/>
    </contour>
  </outline>
</glyph>
<glyph name="endash" format="1">
  <advance width="600"/>
  <unicode hex="2013"/>
  <outline>
    <contour>
      <point x="441" y="196" type="line"/>
      <point x="451" y="255" type="line"/>
      <point x="158" y="255" type="line"/>
      <point x="148" y="196" type="line"/>
    </contour>
  </outline>
</glyph>
<glyph name="emdash" format="1">
  <advance width="600"/>
  <unicode hex="2014"/>
  <outline>
    <contour>
      <point x="514" y="196" type="line"/>
      <point x="524" y="255" type="line"/>
      <point x="85" y="255" type="line"/>
      <point x="75" y="196" type="line"/>
    </contour>
  </outline>
</glyph>
<glyph name="quoteleft" format="1">
  <advance width="600"/>
  <unicode hex="2018"/>
  <outline>
    <contour>
      <point x="324" y="390" type="line"/>
      <point x="374" y="675" type="line"/>
      <point x="276" y="675" type="line"/>
      <point x="262" y="390" type="line"/>
    </contour>
  </outline>
</glyph>
<glyph name="quoteright" format="1">
  <advance width="600"/>
  <unicode hex="2019"/>
  <outline>
    <contour>
      <point x="287" y="390" type="line"/>
      <point x="374" y="675" type="line"/>
      <point x="275" y="675" type="line"/>
      <point x="225" y="390" type="line"/>
    </contour>
  </outline>
</glyph>
<glyph name="quotedblleft" format="1">
  <advance width="600"/>
  <unicode hex="201C"/>
  <outline>
    <contour>
      <point x="446" y="391" type="line"/>
      <point x="496" y="675" type="line"/>
      <point x="398" y="675" type="line"/>
      <point x="378" y="391" type="line"/>
    </contour>
    <contour>
      <point x="202" y="390" type="line"/>
      <point x="252" y="675" type="line"/>
      <point x="153" y="675" type="line"/>
      <point x="139" y="390" type="line"/>
    </contour>
  </outline>
</glyph>
<glyph name="quotedblright" format="1">
  <advance width="600"/>
  <unicode hex="201D"/>
  <outline>
    <contour>
      <point x="410" y="390" type="line"/>
      <point x="496" y="675" type="line"/>
      <point x="397" y="675" type="line"/>
      <point x="347" y="390" type="line"/>
    </contour>
    <contour>
      <point x="171" y="391" type="line"/>
      <point x="251" y="675" type="line"/>
      <point x="153" y="675" type="line"/>
      <point x="103" y="391" type="line"/>
    </contour>
  </outline>
</glyph>
<glyph name="quotedblbase" format="1">
  <advance width="600"/>
  <unicode hex="201E"/>
  <outline>
    <contour>
      <point x="417" y="0" type="line"/>
      <point x="496" y="284" type="line"/>
      <point x="398" y="284" type="line"/>
      <point x="348" y="0" type="line"/>
    </contour>
    <contour>
      <point x="202" y="-1" type="line"/>
      <point x="252" y="284" type="line"/>
      <point x="153" y="284" type="line"/>
      <point x="139" y="-1" type="line"/>
    </contour>
  </outline>
</glyph>
<glyph name="bullet" format="1">
  <advance width="600"/>
  <unicode hex="2022"/>
  <outline>
    <contour>
      <point x="404" y="111" type="line"/>
      <point x="444" y="347" type="line"/>
      <point x="208" y="347" type="line"/>
      <point x="168" y="111" type="line"/>
    </contour>
  </outline>
</glyph>
<glyph name="ellipsis" format="1">
  <advance width="600"/>
  <unicode hex="2026"/>
  <outline>
    <contour>
      <point x="573" y="1" type="line"/>
      <point x="593" y="112" type="line"/>
      <point x="467" y="112" type="line"/>
      <point x="447" y="1" type="line"/>
    </contour>
    <contour>
      <point x="129" y="1" type="line"/>
      <point x="149" y="111" type="line"/>
      <point x="23" y="111" type="line"/>
      <point x="3" y="1" type="line"/>
    </contour>
    <contour>
      <point x="350" y="1" type="line"/>
      <point x="370" y="111" type="line"/>
      <point x="244" y="111" type="line"/>
      <point x="224" y="1" type="line"/>
    </contour>
  </outline>
</glyph>
<glyph name="guilsinglleft" format="1">
  <advance width="600"/>
  <unicode hex="2039"/>
  <outline>
    <contour>
      <point x="369" y="164" type="line"/>
      <point x="284" y="241" type="line"/>
      <point x="369" y="318" type="line"/>
      <point x="369" y="405" type="line"/>
      <point x="230" y="279" type="line"/>
      <point x="230" y="199" type="line"/>
      <point x="369" y="80" type="line"/>
    </contour>
  </outline>
</glyph>
